<mxfile host="65bd71144e" pages="2">
    <diagram id="Ct36mDnhxJWDaNaCKVXO" name="Page-1">
        <mxGraphModel dx="1511" dy="3084" grid="0" gridSize="10" guides="1" tooltips="1" connect="1" arrows="1" fold="1" page="0" pageScale="1" pageWidth="850" pageHeight="1100" math="0" shadow="0">
            <root>
                <mxCell id="0"/>
                <mxCell id="1" parent="0"/>
                <mxCell id="d6jduwgGcOAKK98Mc7a5-266" style="edgeStyle=none;html=1;endArrow=none;endFill=0;" parent="1" source="d6jduwgGcOAKK98Mc7a5-267" target="d6jduwgGcOAKK98Mc7a5-272" edge="1">
                    <mxGeometry relative="1" as="geometry"/>
                </mxCell>
                <mxCell id="d6jduwgGcOAKK98Mc7a5-267" value="RolesHasPermission" style="swimlane;fontStyle=1;align=center;verticalAlign=top;childLayout=stackLayout;horizontal=1;startSize=26;horizontalStack=0;resizeParent=1;resizeParentMax=0;resizeLast=0;collapsible=1;marginBottom=0;swimlaneFillColor=none;" parent="1" vertex="1">
                    <mxGeometry x="817" y="-839" width="160" height="86" as="geometry"/>
                </mxCell>
                <mxCell id="d6jduwgGcOAKK98Mc7a5-268" value="+ role_id: int" style="text;strokeColor=none;fillColor=none;align=left;verticalAlign=top;spacingLeft=4;spacingRight=4;overflow=hidden;rotatable=0;points=[[0,0.5],[1,0.5]];portConstraint=eastwest;" parent="d6jduwgGcOAKK98Mc7a5-267" vertex="1">
                    <mxGeometry y="26" width="160" height="26" as="geometry"/>
                </mxCell>
                <mxCell id="d6jduwgGcOAKK98Mc7a5-269" value="+ permission_id: int" style="text;strokeColor=none;fillColor=none;align=left;verticalAlign=top;spacingLeft=4;spacingRight=4;overflow=hidden;rotatable=0;points=[[0,0.5],[1,0.5]];portConstraint=eastwest;" parent="d6jduwgGcOAKK98Mc7a5-267" vertex="1">
                    <mxGeometry y="52" width="160" height="26" as="geometry"/>
                </mxCell>
                <mxCell id="d6jduwgGcOAKK98Mc7a5-270" value="" style="line;strokeWidth=1;fillColor=none;align=left;verticalAlign=middle;spacingTop=-1;spacingLeft=3;spacingRight=3;rotatable=0;labelPosition=right;points=[];portConstraint=eastwest;strokeColor=inherit;" parent="d6jduwgGcOAKK98Mc7a5-267" vertex="1">
                    <mxGeometry y="78" width="160" height="8" as="geometry"/>
                </mxCell>
                <mxCell id="d6jduwgGcOAKK98Mc7a5-271" style="edgeStyle=none;html=1;endArrow=none;endFill=0;" parent="1" source="d6jduwgGcOAKK98Mc7a5-272" target="d6jduwgGcOAKK98Mc7a5-277" edge="1">
                    <mxGeometry relative="1" as="geometry"/>
                </mxCell>
                <mxCell id="d6jduwgGcOAKK98Mc7a5-272" value="Role" style="swimlane;fontStyle=1;align=center;verticalAlign=top;childLayout=stackLayout;horizontal=1;startSize=26;horizontalStack=0;resizeParent=1;resizeParentMax=0;resizeLast=0;collapsible=1;marginBottom=0;swimlaneFillColor=none;" parent="1" vertex="1">
                    <mxGeometry x="592" y="-855" width="160" height="112" as="geometry"/>
                </mxCell>
                <mxCell id="d6jduwgGcOAKK98Mc7a5-273" value="+ name: string" style="text;strokeColor=none;fillColor=none;align=left;verticalAlign=top;spacingLeft=4;spacingRight=4;overflow=hidden;rotatable=0;points=[[0,0.5],[1,0.5]];portConstraint=eastwest;" parent="d6jduwgGcOAKK98Mc7a5-272" vertex="1">
                    <mxGeometry y="26" width="160" height="26" as="geometry"/>
                </mxCell>
                <mxCell id="d6jduwgGcOAKK98Mc7a5-274" value="+ guard_name: string" style="text;strokeColor=none;fillColor=none;align=left;verticalAlign=top;spacingLeft=4;spacingRight=4;overflow=hidden;rotatable=0;points=[[0,0.5],[1,0.5]];portConstraint=eastwest;" parent="d6jduwgGcOAKK98Mc7a5-272" vertex="1">
                    <mxGeometry y="52" width="160" height="26" as="geometry"/>
                </mxCell>
                <mxCell id="d6jduwgGcOAKK98Mc7a5-275" value="" style="line;strokeWidth=1;fillColor=none;align=left;verticalAlign=middle;spacingTop=-1;spacingLeft=3;spacingRight=3;rotatable=0;labelPosition=right;points=[];portConstraint=eastwest;strokeColor=inherit;" parent="d6jduwgGcOAKK98Mc7a5-272" vertex="1">
                    <mxGeometry y="78" width="160" height="8" as="geometry"/>
                </mxCell>
                <mxCell id="d6jduwgGcOAKK98Mc7a5-276" value="+ method(type): type" style="text;strokeColor=none;fillColor=none;align=left;verticalAlign=top;spacingLeft=4;spacingRight=4;overflow=hidden;rotatable=0;points=[[0,0.5],[1,0.5]];portConstraint=eastwest;" parent="d6jduwgGcOAKK98Mc7a5-272" vertex="1">
                    <mxGeometry y="86" width="160" height="26" as="geometry"/>
                </mxCell>
                <mxCell id="d6jduwgGcOAKK98Mc7a5-277" value="UserHasRoles" style="swimlane;fontStyle=1;align=center;verticalAlign=top;childLayout=stackLayout;horizontal=1;startSize=26;horizontalStack=0;resizeParent=1;resizeParentMax=0;resizeLast=0;collapsible=1;marginBottom=0;swimlaneFillColor=none;" parent="1" vertex="1">
                    <mxGeometry x="592" y="-1007" width="160" height="112" as="geometry"/>
                </mxCell>
                <mxCell id="d6jduwgGcOAKK98Mc7a5-278" value="+ user_id: int" style="text;strokeColor=none;fillColor=none;align=left;verticalAlign=top;spacingLeft=4;spacingRight=4;overflow=hidden;rotatable=0;points=[[0,0.5],[1,0.5]];portConstraint=eastwest;" parent="d6jduwgGcOAKK98Mc7a5-277" vertex="1">
                    <mxGeometry y="26" width="160" height="26" as="geometry"/>
                </mxCell>
                <mxCell id="d6jduwgGcOAKK98Mc7a5-279" value="+ role_id: int" style="text;strokeColor=none;fillColor=none;align=left;verticalAlign=top;spacingLeft=4;spacingRight=4;overflow=hidden;rotatable=0;points=[[0,0.5],[1,0.5]];portConstraint=eastwest;" parent="d6jduwgGcOAKK98Mc7a5-277" vertex="1">
                    <mxGeometry y="52" width="160" height="26" as="geometry"/>
                </mxCell>
                <mxCell id="d6jduwgGcOAKK98Mc7a5-280" value="" style="line;strokeWidth=1;fillColor=none;align=left;verticalAlign=middle;spacingTop=-1;spacingLeft=3;spacingRight=3;rotatable=0;labelPosition=right;points=[];portConstraint=eastwest;strokeColor=inherit;" parent="d6jduwgGcOAKK98Mc7a5-277" vertex="1">
                    <mxGeometry y="78" width="160" height="8" as="geometry"/>
                </mxCell>
                <mxCell id="d6jduwgGcOAKK98Mc7a5-281" value="+ method(type): type" style="text;strokeColor=none;fillColor=none;align=left;verticalAlign=top;spacingLeft=4;spacingRight=4;overflow=hidden;rotatable=0;points=[[0,0.5],[1,0.5]];portConstraint=eastwest;" parent="d6jduwgGcOAKK98Mc7a5-277" vertex="1">
                    <mxGeometry y="86" width="160" height="26" as="geometry"/>
                </mxCell>
                <mxCell id="d6jduwgGcOAKK98Mc7a5-282" value="Permission" style="swimlane;fontStyle=1;align=center;verticalAlign=top;childLayout=stackLayout;horizontal=1;startSize=26;horizontalStack=0;resizeParent=1;resizeParentMax=0;resizeLast=0;collapsible=1;marginBottom=0;swimlaneFillColor=none;" parent="1" vertex="1">
                    <mxGeometry x="597" y="-609" width="160" height="86" as="geometry"/>
                </mxCell>
                <mxCell id="d6jduwgGcOAKK98Mc7a5-283" value="+ name: string" style="text;strokeColor=none;fillColor=none;align=left;verticalAlign=top;spacingLeft=4;spacingRight=4;overflow=hidden;rotatable=0;points=[[0,0.5],[1,0.5]];portConstraint=eastwest;" parent="d6jduwgGcOAKK98Mc7a5-282" vertex="1">
                    <mxGeometry y="26" width="160" height="26" as="geometry"/>
                </mxCell>
                <mxCell id="d6jduwgGcOAKK98Mc7a5-284" value="+ guard_name: string" style="text;strokeColor=none;fillColor=none;align=left;verticalAlign=top;spacingLeft=4;spacingRight=4;overflow=hidden;rotatable=0;points=[[0,0.5],[1,0.5]];portConstraint=eastwest;" parent="d6jduwgGcOAKK98Mc7a5-282" vertex="1">
                    <mxGeometry y="52" width="160" height="26" as="geometry"/>
                </mxCell>
                <mxCell id="d6jduwgGcOAKK98Mc7a5-285" value="" style="line;strokeWidth=1;fillColor=none;align=left;verticalAlign=middle;spacingTop=-1;spacingLeft=3;spacingRight=3;rotatable=0;labelPosition=right;points=[];portConstraint=eastwest;strokeColor=inherit;" parent="d6jduwgGcOAKK98Mc7a5-282" vertex="1">
                    <mxGeometry y="78" width="160" height="8" as="geometry"/>
                </mxCell>
                <mxCell id="d6jduwgGcOAKK98Mc7a5-286" style="edgeStyle=orthogonalEdgeStyle;html=1;endArrow=none;endFill=0;" parent="1" source="d6jduwgGcOAKK98Mc7a5-282" target="d6jduwgGcOAKK98Mc7a5-267" edge="1">
                    <mxGeometry relative="1" as="geometry">
                        <Array as="points">
                            <mxPoint x="677" y="-670"/>
                            <mxPoint x="897" y="-670"/>
                        </Array>
                    </mxGeometry>
                </mxCell>
                <mxCell id="d6jduwgGcOAKK98Mc7a5-287" value="UserHasPermission" style="swimlane;fontStyle=1;align=center;verticalAlign=top;childLayout=stackLayout;horizontal=1;startSize=26;horizontalStack=0;resizeParent=1;resizeParentMax=0;resizeLast=0;collapsible=1;marginBottom=0;swimlaneFillColor=none;" parent="1" vertex="1">
                    <mxGeometry x="856" y="-609" width="160" height="86" as="geometry"/>
                </mxCell>
                <mxCell id="d6jduwgGcOAKK98Mc7a5-288" value="+ field: type" style="text;strokeColor=none;fillColor=none;align=left;verticalAlign=top;spacingLeft=4;spacingRight=4;overflow=hidden;rotatable=0;points=[[0,0.5],[1,0.5]];portConstraint=eastwest;" parent="d6jduwgGcOAKK98Mc7a5-287" vertex="1">
                    <mxGeometry y="26" width="160" height="26" as="geometry"/>
                </mxCell>
                <mxCell id="d6jduwgGcOAKK98Mc7a5-289" value="" style="line;strokeWidth=1;fillColor=none;align=left;verticalAlign=middle;spacingTop=-1;spacingLeft=3;spacingRight=3;rotatable=0;labelPosition=right;points=[];portConstraint=eastwest;strokeColor=inherit;" parent="d6jduwgGcOAKK98Mc7a5-287" vertex="1">
                    <mxGeometry y="52" width="160" height="8" as="geometry"/>
                </mxCell>
                <mxCell id="d6jduwgGcOAKK98Mc7a5-290" value="+ method(type): type" style="text;strokeColor=none;fillColor=none;align=left;verticalAlign=top;spacingLeft=4;spacingRight=4;overflow=hidden;rotatable=0;points=[[0,0.5],[1,0.5]];portConstraint=eastwest;" parent="d6jduwgGcOAKK98Mc7a5-287" vertex="1">
                    <mxGeometry y="60" width="160" height="26" as="geometry"/>
                </mxCell>
                <mxCell id="d6jduwgGcOAKK98Mc7a5-291" style="edgeStyle=orthogonalEdgeStyle;rounded=0;orthogonalLoop=1;jettySize=auto;html=1;endArrow=none;endFill=0;" parent="1" source="d6jduwgGcOAKK98Mc7a5-287" target="d6jduwgGcOAKK98Mc7a5-282" edge="1">
                    <mxGeometry relative="1" as="geometry"/>
                </mxCell>
                <mxCell id="d6jduwgGcOAKK98Mc7a5-292" style="edgeStyle=none;html=1;entryX=0.5;entryY=0;entryDx=0;entryDy=0;endArrow=diamondThin;endFill=1;endSize=16;" parent="1" source="d6jduwgGcOAKK98Mc7a5-294" target="d6jduwgGcOAKK98Mc7a5-318" edge="1">
                    <mxGeometry relative="1" as="geometry"/>
                </mxCell>
                <mxCell id="d6jduwgGcOAKK98Mc7a5-293" style="edgeStyle=orthogonalEdgeStyle;html=1;endArrow=diamondThin;endFill=1;endSize=16;entryX=0;entryY=0.5;entryDx=0;entryDy=0;" parent="1" source="d6jduwgGcOAKK98Mc7a5-294" target="d6jduwgGcOAKK98Mc7a5-332" edge="1">
                    <mxGeometry relative="1" as="geometry">
                        <Array as="points">
                            <mxPoint x="566" y="-1598"/>
                            <mxPoint x="566" y="-1080"/>
                        </Array>
                        <mxPoint x="1634" y="730" as="targetPoint"/>
                    </mxGeometry>
                </mxCell>
                <mxCell id="d6jduwgGcOAKK98Mc7a5-294" value="Address&#10;" style="swimlane;fontStyle=1;align=center;verticalAlign=top;childLayout=stackLayout;horizontal=1;startSize=26;horizontalStack=0;resizeParent=1;resizeParentMax=0;resizeLast=0;collapsible=1;marginBottom=0;swimlaneFillColor=none;" parent="1" vertex="1">
                    <mxGeometry x="281.5" y="-1765" width="215" height="346" as="geometry"/>
                </mxCell>
                <mxCell id="d6jduwgGcOAKK98Mc7a5-295" value="+ Model: Model" style="text;strokeColor=none;fillColor=none;align=left;verticalAlign=top;spacingLeft=4;spacingRight=4;overflow=hidden;rotatable=0;points=[[0,0.5],[1,0.5]];portConstraint=eastwest;" parent="d6jduwgGcOAKK98Mc7a5-294" vertex="1">
                    <mxGeometry y="26" width="215" height="26" as="geometry"/>
                </mxCell>
                <mxCell id="d6jduwgGcOAKK98Mc7a5-296" value="+ uuid: uuid" style="text;strokeColor=none;fillColor=none;align=left;verticalAlign=top;spacingLeft=4;spacingRight=4;overflow=hidden;rotatable=0;points=[[0,0.5],[1,0.5]];portConstraint=eastwest;" parent="d6jduwgGcOAKK98Mc7a5-294" vertex="1">
                    <mxGeometry y="52" width="215" height="26" as="geometry"/>
                </mxCell>
                <mxCell id="d6jduwgGcOAKK98Mc7a5-297" value="+ state: string" style="text;strokeColor=none;fillColor=none;align=left;verticalAlign=top;spacingLeft=4;spacingRight=4;overflow=hidden;rotatable=0;points=[[0,0.5],[1,0.5]];portConstraint=eastwest;" parent="d6jduwgGcOAKK98Mc7a5-294" vertex="1">
                    <mxGeometry y="78" width="215" height="26" as="geometry"/>
                </mxCell>
                <mxCell id="d6jduwgGcOAKK98Mc7a5-298" value="+ city: string" style="text;strokeColor=none;fillColor=none;align=left;verticalAlign=top;spacingLeft=4;spacingRight=4;overflow=hidden;rotatable=0;points=[[0,0.5],[1,0.5]];portConstraint=eastwest;" parent="d6jduwgGcOAKK98Mc7a5-294" vertex="1">
                    <mxGeometry y="104" width="215" height="26" as="geometry"/>
                </mxCell>
                <mxCell id="d6jduwgGcOAKK98Mc7a5-299" value="+ zip_code: string" style="text;strokeColor=none;fillColor=none;align=left;verticalAlign=top;spacingLeft=4;spacingRight=4;overflow=hidden;rotatable=0;points=[[0,0.5],[1,0.5]];portConstraint=eastwest;" parent="d6jduwgGcOAKK98Mc7a5-294" vertex="1">
                    <mxGeometry y="130" width="215" height="26" as="geometry"/>
                </mxCell>
                <mxCell id="d6jduwgGcOAKK98Mc7a5-300" value="+ number: string" style="text;strokeColor=none;fillColor=none;align=left;verticalAlign=top;spacingLeft=4;spacingRight=4;overflow=hidden;rotatable=0;points=[[0,0.5],[1,0.5]];portConstraint=eastwest;" parent="d6jduwgGcOAKK98Mc7a5-294" vertex="1">
                    <mxGeometry y="156" width="215" height="26" as="geometry"/>
                </mxCell>
                <mxCell id="d6jduwgGcOAKK98Mc7a5-301" value="+ neighborhood: string" style="text;strokeColor=none;fillColor=none;align=left;verticalAlign=top;spacingLeft=4;spacingRight=4;overflow=hidden;rotatable=0;points=[[0,0.5],[1,0.5]];portConstraint=eastwest;" parent="d6jduwgGcOAKK98Mc7a5-294" vertex="1">
                    <mxGeometry y="182" width="215" height="26" as="geometry"/>
                </mxCell>
                <mxCell id="d6jduwgGcOAKK98Mc7a5-302" value="+ street: string" style="text;strokeColor=none;fillColor=none;align=left;verticalAlign=top;spacingLeft=4;spacingRight=4;overflow=hidden;rotatable=0;points=[[0,0.5],[1,0.5]];portConstraint=eastwest;" parent="d6jduwgGcOAKK98Mc7a5-294" vertex="1">
                    <mxGeometry y="208" width="215" height="26" as="geometry"/>
                </mxCell>
                <mxCell id="d6jduwgGcOAKK98Mc7a5-303" value="+ complement: string" style="text;strokeColor=none;fillColor=none;align=left;verticalAlign=top;spacingLeft=4;spacingRight=4;overflow=hidden;rotatable=0;points=[[0,0.5],[1,0.5]];portConstraint=eastwest;" parent="d6jduwgGcOAKK98Mc7a5-294" vertex="1">
                    <mxGeometry y="234" width="215" height="26" as="geometry"/>
                </mxCell>
                <mxCell id="d6jduwgGcOAKK98Mc7a5-304" value="" style="line;strokeWidth=1;fillColor=none;align=left;verticalAlign=middle;spacingTop=-1;spacingLeft=3;spacingRight=3;rotatable=0;labelPosition=right;points=[];portConstraint=eastwest;strokeColor=inherit;" parent="d6jduwgGcOAKK98Mc7a5-294" vertex="1">
                    <mxGeometry y="260" width="215" height="8" as="geometry"/>
                </mxCell>
                <mxCell id="d6jduwgGcOAKK98Mc7a5-305" value="+ destroy(uuid : string ): response" style="text;strokeColor=none;fillColor=none;align=left;verticalAlign=top;spacingLeft=4;spacingRight=4;overflow=hidden;rotatable=0;points=[[0,0.5],[1,0.5]];portConstraint=eastwest;" parent="d6jduwgGcOAKK98Mc7a5-294" vertex="1">
                    <mxGeometry y="268" width="215" height="26" as="geometry"/>
                </mxCell>
                <mxCell id="d6jduwgGcOAKK98Mc7a5-306" value="+ show(uuid : string ): response" style="text;strokeColor=none;fillColor=none;align=left;verticalAlign=top;spacingLeft=4;spacingRight=4;overflow=hidden;rotatable=0;points=[[0,0.5],[1,0.5]];portConstraint=eastwest;" parent="d6jduwgGcOAKK98Mc7a5-294" vertex="1">
                    <mxGeometry y="294" width="215" height="26" as="geometry"/>
                </mxCell>
                <mxCell id="d6jduwgGcOAKK98Mc7a5-307" value="+ update(request: request ): response" style="text;strokeColor=none;fillColor=none;align=left;verticalAlign=top;spacingLeft=4;spacingRight=4;overflow=hidden;rotatable=0;points=[[0,0.5],[1,0.5]];portConstraint=eastwest;" parent="d6jduwgGcOAKK98Mc7a5-294" vertex="1">
                    <mxGeometry y="320" width="215" height="26" as="geometry"/>
                </mxCell>
                <mxCell id="d6jduwgGcOAKK98Mc7a5-308" value="Photo" style="swimlane;fontStyle=1;align=center;verticalAlign=top;childLayout=stackLayout;horizontal=1;startSize=26;horizontalStack=0;resizeParent=1;resizeParentMax=0;resizeLast=0;collapsible=1;marginBottom=0;swimlaneFillColor=none;" parent="1" vertex="1">
                    <mxGeometry x="309" y="-899" width="160" height="190" as="geometry"/>
                </mxCell>
                <mxCell id="d6jduwgGcOAKK98Mc7a5-309" value="+ Model: Model" style="text;strokeColor=none;fillColor=none;align=left;verticalAlign=top;spacingLeft=4;spacingRight=4;overflow=hidden;rotatable=0;points=[[0,0.5],[1,0.5]];portConstraint=eastwest;" parent="d6jduwgGcOAKK98Mc7a5-308" vertex="1">
                    <mxGeometry y="26" width="160" height="26" as="geometry"/>
                </mxCell>
                <mxCell id="d6jduwgGcOAKK98Mc7a5-310" value="+ uuid: uuid" style="text;strokeColor=none;fillColor=none;align=left;verticalAlign=top;spacingLeft=4;spacingRight=4;overflow=hidden;rotatable=0;points=[[0,0.5],[1,0.5]];portConstraint=eastwest;" parent="d6jduwgGcOAKK98Mc7a5-308" vertex="1">
                    <mxGeometry y="52" width="160" height="26" as="geometry"/>
                </mxCell>
                <mxCell id="d6jduwgGcOAKK98Mc7a5-311" value="+ name: string" style="text;strokeColor=none;fillColor=none;align=left;verticalAlign=top;spacingLeft=4;spacingRight=4;overflow=hidden;rotatable=0;points=[[0,0.5],[1,0.5]];portConstraint=eastwest;" parent="d6jduwgGcOAKK98Mc7a5-308" vertex="1">
                    <mxGeometry y="78" width="160" height="26" as="geometry"/>
                </mxCell>
                <mxCell id="d6jduwgGcOAKK98Mc7a5-312" value="+ url: string" style="text;strokeColor=none;fillColor=none;align=left;verticalAlign=top;spacingLeft=4;spacingRight=4;overflow=hidden;rotatable=0;points=[[0,0.5],[1,0.5]];portConstraint=eastwest;" parent="d6jduwgGcOAKK98Mc7a5-308" vertex="1">
                    <mxGeometry y="104" width="160" height="26" as="geometry"/>
                </mxCell>
                <mxCell id="d6jduwgGcOAKK98Mc7a5-313" value="" style="line;strokeWidth=1;fillColor=none;align=left;verticalAlign=middle;spacingTop=-1;spacingLeft=3;spacingRight=3;rotatable=0;labelPosition=right;points=[];portConstraint=eastwest;strokeColor=inherit;" parent="d6jduwgGcOAKK98Mc7a5-308" vertex="1">
                    <mxGeometry y="130" width="160" height="8" as="geometry"/>
                </mxCell>
                <mxCell id="d6jduwgGcOAKK98Mc7a5-314" value="+ destroy(uuid): response" style="text;strokeColor=none;fillColor=none;align=left;verticalAlign=top;spacingLeft=4;spacingRight=4;overflow=hidden;rotatable=0;points=[[0,0.5],[1,0.5]];portConstraint=eastwest;" parent="d6jduwgGcOAKK98Mc7a5-308" vertex="1">
                    <mxGeometry y="138" width="160" height="26" as="geometry"/>
                </mxCell>
                <mxCell id="d6jduwgGcOAKK98Mc7a5-315" value="+ show(uuid): response" style="text;strokeColor=none;fillColor=none;align=left;verticalAlign=top;spacingLeft=4;spacingRight=4;overflow=hidden;rotatable=0;points=[[0,0.5],[1,0.5]];portConstraint=eastwest;" parent="d6jduwgGcOAKK98Mc7a5-308" vertex="1">
                    <mxGeometry y="164" width="160" height="26" as="geometry"/>
                </mxCell>
                <mxCell id="d6jduwgGcOAKK98Mc7a5-316" style="edgeStyle=orthogonalEdgeStyle;html=1;entryX=0.5;entryY=0;entryDx=0;entryDy=0;endArrow=diamondThin;endFill=1;" parent="1" source="d6jduwgGcOAKK98Mc7a5-318" target="d6jduwgGcOAKK98Mc7a5-308" edge="1">
                    <mxGeometry relative="1" as="geometry"/>
                </mxCell>
                <mxCell id="d6jduwgGcOAKK98Mc7a5-317" style="edgeStyle=orthogonalEdgeStyle;rounded=0;jumpStyle=arc;orthogonalLoop=1;jettySize=auto;html=1;exitX=0.75;exitY=0;exitDx=0;exitDy=0;entryX=0;entryY=0.5;entryDx=0;entryDy=0;endArrow=diamondThin;endFill=1;endSize=16;elbow=vertical;" parent="1" source="d6jduwgGcOAKK98Mc7a5-318" target="d6jduwgGcOAKK98Mc7a5-425" edge="1">
                    <mxGeometry relative="1" as="geometry"/>
                </mxCell>
                <mxCell id="d6jduwgGcOAKK98Mc7a5-318" value="Coworking" style="swimlane;fontStyle=1;align=center;verticalAlign=top;childLayout=stackLayout;horizontal=1;startSize=26;horizontalStack=0;resizeParent=1;resizeParentMax=0;resizeLast=0;collapsible=1;marginBottom=0;swimlaneFillColor=none;" parent="1" vertex="1">
                    <mxGeometry x="265" y="-1217" width="248" height="242" as="geometry"/>
                </mxCell>
                <mxCell id="d6jduwgGcOAKK98Mc7a5-319" value="+ User: User" style="text;strokeColor=none;fillColor=none;align=left;verticalAlign=top;spacingLeft=4;spacingRight=4;overflow=hidden;rotatable=0;points=[[0,0.5],[1,0.5]];portConstraint=eastwest;" parent="d6jduwgGcOAKK98Mc7a5-318" vertex="1">
                    <mxGeometry y="26" width="248" height="26" as="geometry"/>
                </mxCell>
                <mxCell id="d6jduwgGcOAKK98Mc7a5-320" value="+ uuid: uuid" style="text;strokeColor=none;fillColor=none;align=left;verticalAlign=top;spacingLeft=4;spacingRight=4;overflow=hidden;rotatable=0;points=[[0,0.5],[1,0.5]];portConstraint=eastwest;" parent="d6jduwgGcOAKK98Mc7a5-318" vertex="1">
                    <mxGeometry y="52" width="248" height="26" as="geometry"/>
                </mxCell>
                <mxCell id="d6jduwgGcOAKK98Mc7a5-321" value="+ name: string" style="text;strokeColor=none;fillColor=none;align=left;verticalAlign=top;spacingLeft=4;spacingRight=4;overflow=hidden;rotatable=0;points=[[0,0.5],[1,0.5]];portConstraint=eastwest;" parent="d6jduwgGcOAKK98Mc7a5-318" vertex="1">
                    <mxGeometry y="78" width="248" height="26" as="geometry"/>
                </mxCell>
                <mxCell id="shD4E1sYDdocK4SxDkoO-11" value="+ description: string" style="text;strokeColor=none;fillColor=none;align=left;verticalAlign=top;spacingLeft=4;spacingRight=4;overflow=hidden;rotatable=0;points=[[0,0.5],[1,0.5]];portConstraint=eastwest;" parent="d6jduwgGcOAKK98Mc7a5-318" vertex="1">
                    <mxGeometry y="104" width="248" height="26" as="geometry"/>
                </mxCell>
                <mxCell id="d6jduwgGcOAKK98Mc7a5-322" value="+ Address: Address" style="text;strokeColor=none;fillColor=none;align=left;verticalAlign=top;spacingLeft=4;spacingRight=4;overflow=hidden;rotatable=0;points=[[0,0.5],[1,0.5]];portConstraint=eastwest;" parent="d6jduwgGcOAKK98Mc7a5-318" vertex="1">
                    <mxGeometry y="130" width="248" height="26" as="geometry"/>
                </mxCell>
                <mxCell id="shD4E1sYDdocK4SxDkoO-14" value="+ CoworkingOpeningHours:CoworkingOpeningHours" style="text;strokeColor=none;fillColor=none;align=left;verticalAlign=top;spacingLeft=4;spacingRight=4;overflow=hidden;rotatable=0;points=[[0,0.5],[1,0.5]];portConstraint=eastwest;" parent="d6jduwgGcOAKK98Mc7a5-318" vertex="1">
                    <mxGeometry y="156" width="248" height="26" as="geometry"/>
                </mxCell>
                <mxCell id="d6jduwgGcOAKK98Mc7a5-323" value="" style="line;strokeWidth=1;fillColor=none;align=left;verticalAlign=middle;spacingTop=-1;spacingLeft=3;spacingRight=3;rotatable=0;labelPosition=right;points=[];portConstraint=eastwest;strokeColor=inherit;" parent="d6jduwgGcOAKK98Mc7a5-318" vertex="1">
                    <mxGeometry y="182" width="248" height="8" as="geometry"/>
                </mxCell>
                <mxCell id="d6jduwgGcOAKK98Mc7a5-324" value="+ destroy(uuid): response" style="text;strokeColor=none;fillColor=none;align=left;verticalAlign=top;spacingLeft=4;spacingRight=4;overflow=hidden;rotatable=0;points=[[0,0.5],[1,0.5]];portConstraint=eastwest;" parent="d6jduwgGcOAKK98Mc7a5-318" vertex="1">
                    <mxGeometry y="190" width="248" height="26" as="geometry"/>
                </mxCell>
                <mxCell id="d6jduwgGcOAKK98Mc7a5-325" value="+ show(uuid): response" style="text;strokeColor=none;fillColor=none;align=left;verticalAlign=top;spacingLeft=4;spacingRight=4;overflow=hidden;rotatable=0;points=[[0,0.5],[1,0.5]];portConstraint=eastwest;" parent="d6jduwgGcOAKK98Mc7a5-318" vertex="1">
                    <mxGeometry y="216" width="248" height="26" as="geometry"/>
                </mxCell>
                <mxCell id="d6jduwgGcOAKK98Mc7a5-326" style="edgeStyle=orthogonalEdgeStyle;html=1;entryX=1;entryY=0.5;entryDx=0;entryDy=0;endArrow=diamondThin;endFill=1;endSize=16;" parent="1" source="d6jduwgGcOAKK98Mc7a5-330" target="d6jduwgGcOAKK98Mc7a5-357" edge="1">
                    <mxGeometry relative="1" as="geometry"/>
                </mxCell>
                <mxCell id="d6jduwgGcOAKK98Mc7a5-327" style="edgeStyle=orthogonalEdgeStyle;rounded=0;jumpStyle=arc;orthogonalLoop=1;jettySize=auto;html=1;endArrow=diamondThin;endFill=1;endSize=16;elbow=vertical;" parent="1" source="d6jduwgGcOAKK98Mc7a5-330" target="d6jduwgGcOAKK98Mc7a5-411" edge="1">
                    <mxGeometry relative="1" as="geometry">
                        <mxPoint x="1108" y="-1300" as="targetPoint"/>
                        <Array as="points">
                            <mxPoint x="1103" y="-1431"/>
                        </Array>
                    </mxGeometry>
                </mxCell>
                <mxCell id="d6jduwgGcOAKK98Mc7a5-328" style="edgeStyle=orthogonalEdgeStyle;rounded=0;jumpStyle=arc;orthogonalLoop=1;jettySize=auto;html=1;endArrow=diamondThin;endFill=1;endSize=16;elbow=vertical;" parent="1" source="d6jduwgGcOAKK98Mc7a5-330" target="d6jduwgGcOAKK98Mc7a5-417" edge="1">
                    <mxGeometry relative="1" as="geometry">
                        <Array as="points">
                            <mxPoint x="1065" y="-1342"/>
                        </Array>
                    </mxGeometry>
                </mxCell>
                <mxCell id="d6jduwgGcOAKK98Mc7a5-329" style="edgeStyle=orthogonalEdgeStyle;rounded=0;orthogonalLoop=1;jettySize=auto;html=1;exitX=0.75;exitY=0;exitDx=0;exitDy=0;endArrow=diamondThin;endFill=1;jumpSize=6;startSize=6;endSize=16;" parent="1" source="d6jduwgGcOAKK98Mc7a5-330" target="d6jduwgGcOAKK98Mc7a5-387" edge="1">
                    <mxGeometry relative="1" as="geometry">
                        <Array as="points">
                            <mxPoint x="1140" y="-1145"/>
                            <mxPoint x="1140" y="-1428"/>
                        </Array>
                    </mxGeometry>
                </mxCell>
                <mxCell id="d6jduwgGcOAKK98Mc7a5-450" style="edgeStyle=orthogonalEdgeStyle;rounded=0;jumpStyle=arc;jumpSize=6;orthogonalLoop=1;jettySize=auto;html=1;endArrow=diamondThin;endFill=1;startSize=6;endSize=16;" parent="1" source="d6jduwgGcOAKK98Mc7a5-330" target="d6jduwgGcOAKK98Mc7a5-398" edge="1">
                    <mxGeometry relative="1" as="geometry"/>
                </mxCell>
                <mxCell id="d6jduwgGcOAKK98Mc7a5-330" value="User" style="swimlane;fontStyle=1;align=center;verticalAlign=top;childLayout=stackLayout;horizontal=1;startSize=26;horizontalStack=0;resizeParent=1;resizeParentMax=0;resizeLast=0;collapsible=1;marginBottom=0;swimlaneFillColor=none;" parent="1" vertex="1">
                    <mxGeometry x="1004" y="-1145" width="220" height="346" as="geometry"/>
                </mxCell>
                <mxCell id="d6jduwgGcOAKK98Mc7a5-331" value="+ uuid: uuid" style="text;strokeColor=none;fillColor=none;align=left;verticalAlign=top;spacingLeft=4;spacingRight=4;overflow=hidden;rotatable=0;points=[[0,0.5],[1,0.5]];portConstraint=eastwest;" parent="d6jduwgGcOAKK98Mc7a5-330" vertex="1">
                    <mxGeometry y="26" width="220" height="26" as="geometry"/>
                </mxCell>
                <mxCell id="d6jduwgGcOAKK98Mc7a5-332" value="+ name: string" style="text;strokeColor=none;fillColor=none;align=left;verticalAlign=top;spacingLeft=4;spacingRight=4;overflow=hidden;rotatable=0;points=[[0,0.5],[1,0.5]];portConstraint=eastwest;" parent="d6jduwgGcOAKK98Mc7a5-330" vertex="1">
                    <mxGeometry y="52" width="220" height="26" as="geometry"/>
                </mxCell>
                <mxCell id="d6jduwgGcOAKK98Mc7a5-333" value="+ phone: string" style="text;strokeColor=none;fillColor=none;align=left;verticalAlign=top;spacingLeft=4;spacingRight=4;overflow=hidden;rotatable=0;points=[[0,0.5],[1,0.5]];portConstraint=eastwest;" parent="d6jduwgGcOAKK98Mc7a5-330" vertex="1">
                    <mxGeometry y="78" width="220" height="26" as="geometry"/>
                </mxCell>
                <mxCell id="d6jduwgGcOAKK98Mc7a5-334" value="+ email: string" style="text;strokeColor=none;fillColor=none;align=left;verticalAlign=top;spacingLeft=4;spacingRight=4;overflow=hidden;rotatable=0;points=[[0,0.5],[1,0.5]];portConstraint=eastwest;" parent="d6jduwgGcOAKK98Mc7a5-330" vertex="1">
                    <mxGeometry y="104" width="220" height="26" as="geometry"/>
                </mxCell>
                <mxCell id="shD4E1sYDdocK4SxDkoO-12" value="+ Address: Address" style="text;strokeColor=none;fillColor=none;align=left;verticalAlign=top;spacingLeft=4;spacingRight=4;overflow=hidden;rotatable=0;points=[[0,0.5],[1,0.5]];portConstraint=eastwest;" parent="d6jduwgGcOAKK98Mc7a5-330" vertex="1">
                    <mxGeometry y="130" width="220" height="26" as="geometry"/>
                </mxCell>
                <mxCell id="d6jduwgGcOAKK98Mc7a5-335" value="+ password: string" style="text;strokeColor=none;fillColor=none;align=left;verticalAlign=top;spacingLeft=4;spacingRight=4;overflow=hidden;rotatable=0;points=[[0,0.5],[1,0.5]];portConstraint=eastwest;" parent="d6jduwgGcOAKK98Mc7a5-330" vertex="1">
                    <mxGeometry y="156" width="220" height="26" as="geometry"/>
                </mxCell>
                <mxCell id="d6jduwgGcOAKK98Mc7a5-336" value="" style="line;strokeWidth=1;fillColor=none;align=left;verticalAlign=middle;spacingTop=-1;spacingLeft=3;spacingRight=3;rotatable=0;labelPosition=right;points=[];portConstraint=eastwest;strokeColor=inherit;" parent="d6jduwgGcOAKK98Mc7a5-330" vertex="1">
                    <mxGeometry y="182" width="220" height="8" as="geometry"/>
                </mxCell>
                <mxCell id="d6jduwgGcOAKK98Mc7a5-337" value="+ store(request: request ): response" style="text;strokeColor=none;fillColor=none;align=left;verticalAlign=top;spacingLeft=4;spacingRight=4;overflow=hidden;rotatable=0;points=[[0,0.5],[1,0.5]];portConstraint=eastwest;" parent="d6jduwgGcOAKK98Mc7a5-330" vertex="1">
                    <mxGeometry y="190" width="220" height="26" as="geometry"/>
                </mxCell>
                <mxCell id="d6jduwgGcOAKK98Mc7a5-338" value="+ storeAddress(Request ): response" style="text;strokeColor=none;fillColor=none;align=left;verticalAlign=top;spacingLeft=4;spacingRight=4;overflow=hidden;rotatable=0;points=[[0,0.5],[1,0.5]];portConstraint=eastwest;" parent="d6jduwgGcOAKK98Mc7a5-330" vertex="1">
                    <mxGeometry y="216" width="220" height="26" as="geometry"/>
                </mxCell>
                <mxCell id="d6jduwgGcOAKK98Mc7a5-339" value="+ storeOrUpdatePhoto(Request ): response" style="text;strokeColor=none;fillColor=none;align=left;verticalAlign=top;spacingLeft=4;spacingRight=4;overflow=hidden;rotatable=0;points=[[0,0.5],[1,0.5]];portConstraint=eastwest;" parent="d6jduwgGcOAKK98Mc7a5-330" vertex="1">
                    <mxGeometry y="242" width="220" height="26" as="geometry"/>
                </mxCell>
                <mxCell id="d6jduwgGcOAKK98Mc7a5-340" value="+ update(request: request ): response" style="text;strokeColor=none;fillColor=none;align=left;verticalAlign=top;spacingLeft=4;spacingRight=4;overflow=hidden;rotatable=0;points=[[0,0.5],[1,0.5]];portConstraint=eastwest;" parent="d6jduwgGcOAKK98Mc7a5-330" vertex="1">
                    <mxGeometry y="268" width="220" height="26" as="geometry"/>
                </mxCell>
                <mxCell id="d6jduwgGcOAKK98Mc7a5-341" value="+ show(uuid : string ): response" style="text;strokeColor=none;fillColor=none;align=left;verticalAlign=top;spacingLeft=4;spacingRight=4;overflow=hidden;rotatable=0;points=[[0,0.5],[1,0.5]];portConstraint=eastwest;" parent="d6jduwgGcOAKK98Mc7a5-330" vertex="1">
                    <mxGeometry y="294" width="220" height="26" as="geometry"/>
                </mxCell>
                <mxCell id="d6jduwgGcOAKK98Mc7a5-342" value="+ destroy(uuid : string ): response" style="text;strokeColor=none;fillColor=none;align=left;verticalAlign=top;spacingLeft=4;spacingRight=4;overflow=hidden;rotatable=0;points=[[0,0.5],[1,0.5]];portConstraint=eastwest;" parent="d6jduwgGcOAKK98Mc7a5-330" vertex="1">
                    <mxGeometry y="320" width="220" height="26" as="geometry"/>
                </mxCell>
                <mxCell id="d6jduwgGcOAKK98Mc7a5-343" style="edgeStyle=orthogonalEdgeStyle;rounded=0;jumpStyle=arc;orthogonalLoop=1;jettySize=auto;html=1;entryX=0;entryY=0.5;entryDx=0;entryDy=0;endArrow=diamondThin;endFill=1;endSize=16;elbow=vertical;" parent="1" source="d6jduwgGcOAKK98Mc7a5-344" target="d6jduwgGcOAKK98Mc7a5-423" edge="1">
                    <mxGeometry relative="1" as="geometry"/>
                </mxCell>
                <mxCell id="d6jduwgGcOAKK98Mc7a5-344" value="Room" style="swimlane;fontStyle=1;align=center;verticalAlign=top;childLayout=stackLayout;horizontal=1;startSize=26;horizontalStack=0;resizeParent=1;resizeParentMax=0;resizeLast=0;collapsible=1;marginBottom=0;" parent="1" vertex="1">
                    <mxGeometry x="-22" y="-1154" width="160" height="190" as="geometry"/>
                </mxCell>
                <mxCell id="d6jduwgGcOAKK98Mc7a5-345" value="+ Coworking: coworking" style="text;strokeColor=none;fillColor=none;align=left;verticalAlign=top;spacingLeft=4;spacingRight=4;overflow=hidden;rotatable=0;points=[[0,0.5],[1,0.5]];portConstraint=eastwest;" parent="d6jduwgGcOAKK98Mc7a5-344" vertex="1">
                    <mxGeometry y="26" width="160" height="26" as="geometry"/>
                </mxCell>
                <mxCell id="d6jduwgGcOAKK98Mc7a5-346" value="+ uuid: uuid" style="text;strokeColor=none;fillColor=none;align=left;verticalAlign=top;spacingLeft=4;spacingRight=4;overflow=hidden;rotatable=0;points=[[0,0.5],[1,0.5]];portConstraint=eastwest;" parent="d6jduwgGcOAKK98Mc7a5-344" vertex="1">
                    <mxGeometry y="52" width="160" height="26" as="geometry"/>
                </mxCell>
                <mxCell id="d6jduwgGcOAKK98Mc7a5-347" value="+ number: string" style="text;strokeColor=none;fillColor=none;align=left;verticalAlign=top;spacingLeft=4;spacingRight=4;overflow=hidden;rotatable=0;points=[[0,0.5],[1,0.5]];portConstraint=eastwest;" parent="d6jduwgGcOAKK98Mc7a5-344" vertex="1">
                    <mxGeometry y="78" width="160" height="26" as="geometry"/>
                </mxCell>
                <mxCell id="d6jduwgGcOAKK98Mc7a5-348" value="+ description: string" style="text;strokeColor=none;fillColor=none;align=left;verticalAlign=top;spacingLeft=4;spacingRight=4;overflow=hidden;rotatable=0;points=[[0,0.5],[1,0.5]];portConstraint=eastwest;" parent="d6jduwgGcOAKK98Mc7a5-344" vertex="1">
                    <mxGeometry y="104" width="160" height="26" as="geometry"/>
                </mxCell>
                <mxCell id="d6jduwgGcOAKK98Mc7a5-349" value="" style="line;strokeWidth=1;fillColor=none;align=left;verticalAlign=middle;spacingTop=-1;spacingLeft=3;spacingRight=3;rotatable=0;labelPosition=right;points=[];portConstraint=eastwest;strokeColor=inherit;" parent="d6jduwgGcOAKK98Mc7a5-344" vertex="1">
                    <mxGeometry y="130" width="160" height="8" as="geometry"/>
                </mxCell>
                <mxCell id="d6jduwgGcOAKK98Mc7a5-350" value="+ destroy(uuid): response" style="text;strokeColor=none;fillColor=none;align=left;verticalAlign=top;spacingLeft=4;spacingRight=4;overflow=hidden;rotatable=0;points=[[0,0.5],[1,0.5]];portConstraint=eastwest;" parent="d6jduwgGcOAKK98Mc7a5-344" vertex="1">
                    <mxGeometry y="138" width="160" height="26" as="geometry"/>
                </mxCell>
                <mxCell id="d6jduwgGcOAKK98Mc7a5-351" value="+ show(uuid): response" style="text;strokeColor=none;fillColor=none;align=left;verticalAlign=top;spacingLeft=4;spacingRight=4;overflow=hidden;rotatable=0;points=[[0,0.5],[1,0.5]];portConstraint=eastwest;" parent="d6jduwgGcOAKK98Mc7a5-344" vertex="1">
                    <mxGeometry y="164" width="160" height="26" as="geometry"/>
                </mxCell>
                <mxCell id="d6jduwgGcOAKK98Mc7a5-352" value="Category" style="swimlane;fontStyle=1;align=center;verticalAlign=top;childLayout=stackLayout;horizontal=1;startSize=26;horizontalStack=0;resizeParent=1;resizeParentMax=0;resizeLast=0;collapsible=1;marginBottom=0;" parent="1" vertex="1">
                    <mxGeometry x="304" y="-632" width="170" height="268" as="geometry"/>
                </mxCell>
                <mxCell id="d6jduwgGcOAKK98Mc7a5-353" value="+ User: User" style="text;strokeColor=none;fillColor=none;align=left;verticalAlign=top;spacingLeft=4;spacingRight=4;overflow=hidden;rotatable=0;points=[[0,0.5],[1,0.5]];portConstraint=eastwest;" parent="d6jduwgGcOAKK98Mc7a5-352" vertex="1">
                    <mxGeometry y="26" width="170" height="26" as="geometry"/>
                </mxCell>
                <mxCell id="d6jduwgGcOAKK98Mc7a5-354" value="+ uuid: uuid" style="text;strokeColor=none;fillColor=none;align=left;verticalAlign=top;spacingLeft=4;spacingRight=4;overflow=hidden;rotatable=0;points=[[0,0.5],[1,0.5]];portConstraint=eastwest;" parent="d6jduwgGcOAKK98Mc7a5-352" vertex="1">
                    <mxGeometry y="52" width="170" height="26" as="geometry"/>
                </mxCell>
                <mxCell id="d6jduwgGcOAKK98Mc7a5-355" value="+ name: string" style="text;strokeColor=none;fillColor=none;align=left;verticalAlign=top;spacingLeft=4;spacingRight=4;overflow=hidden;rotatable=0;points=[[0,0.5],[1,0.5]];portConstraint=eastwest;" parent="d6jduwgGcOAKK98Mc7a5-352" vertex="1">
                    <mxGeometry y="78" width="170" height="26" as="geometry"/>
                </mxCell>
                <mxCell id="d6jduwgGcOAKK98Mc7a5-356" value="+ price_per_minute: string" style="text;strokeColor=none;fillColor=none;align=left;verticalAlign=top;spacingLeft=4;spacingRight=4;overflow=hidden;rotatable=0;points=[[0,0.5],[1,0.5]];portConstraint=eastwest;" parent="d6jduwgGcOAKK98Mc7a5-352" vertex="1">
                    <mxGeometry y="104" width="170" height="26" as="geometry"/>
                </mxCell>
                <mxCell id="d6jduwgGcOAKK98Mc7a5-357" value="+ description: string" style="text;strokeColor=none;fillColor=none;align=left;verticalAlign=top;spacingLeft=4;spacingRight=4;overflow=hidden;rotatable=0;points=[[0,0.5],[1,0.5]];portConstraint=eastwest;" parent="d6jduwgGcOAKK98Mc7a5-352" vertex="1">
                    <mxGeometry y="130" width="170" height="26" as="geometry"/>
                </mxCell>
                <mxCell id="d6jduwgGcOAKK98Mc7a5-358" value="" style="line;strokeWidth=1;fillColor=none;align=left;verticalAlign=middle;spacingTop=-1;spacingLeft=3;spacingRight=3;rotatable=0;labelPosition=right;points=[];portConstraint=eastwest;strokeColor=inherit;" parent="d6jduwgGcOAKK98Mc7a5-352" vertex="1">
                    <mxGeometry y="156" width="170" height="8" as="geometry"/>
                </mxCell>
                <mxCell id="d6jduwgGcOAKK98Mc7a5-359" value="+ store(request): response" style="text;strokeColor=none;fillColor=none;align=left;verticalAlign=top;spacingLeft=4;spacingRight=4;overflow=hidden;rotatable=0;points=[[0,0.5],[1,0.5]];portConstraint=eastwest;" parent="d6jduwgGcOAKK98Mc7a5-352" vertex="1">
                    <mxGeometry y="164" width="170" height="26" as="geometry"/>
                </mxCell>
                <mxCell id="d6jduwgGcOAKK98Mc7a5-360" value="+ update(request): response" style="text;strokeColor=none;fillColor=none;align=left;verticalAlign=top;spacingLeft=4;spacingRight=4;overflow=hidden;rotatable=0;points=[[0,0.5],[1,0.5]];portConstraint=eastwest;" parent="d6jduwgGcOAKK98Mc7a5-352" vertex="1">
                    <mxGeometry y="190" width="170" height="26" as="geometry"/>
                </mxCell>
                <mxCell id="d6jduwgGcOAKK98Mc7a5-361" value="+ destroy(uuid): response" style="text;strokeColor=none;fillColor=none;align=left;verticalAlign=top;spacingLeft=4;spacingRight=4;overflow=hidden;rotatable=0;points=[[0,0.5],[1,0.5]];portConstraint=eastwest;" parent="d6jduwgGcOAKK98Mc7a5-352" vertex="1">
                    <mxGeometry y="216" width="170" height="26" as="geometry"/>
                </mxCell>
                <mxCell id="d6jduwgGcOAKK98Mc7a5-362" value="+ show(uuid): response" style="text;strokeColor=none;fillColor=none;align=left;verticalAlign=top;spacingLeft=4;spacingRight=4;overflow=hidden;rotatable=0;points=[[0,0.5],[1,0.5]];portConstraint=eastwest;" parent="d6jduwgGcOAKK98Mc7a5-352" vertex="1">
                    <mxGeometry y="242" width="170" height="26" as="geometry"/>
                </mxCell>
                <mxCell id="d6jduwgGcOAKK98Mc7a5-363" style="edgeStyle=orthogonalEdgeStyle;html=1;endArrow=none;endFill=0;" parent="1" source="d6jduwgGcOAKK98Mc7a5-330" target="d6jduwgGcOAKK98Mc7a5-287" edge="1">
                    <mxGeometry relative="1" as="geometry">
                        <Array as="points">
                            <mxPoint x="1084" y="-566"/>
                        </Array>
                    </mxGeometry>
                </mxCell>
                <mxCell id="d6jduwgGcOAKK98Mc7a5-364" style="edgeStyle=orthogonalEdgeStyle;html=1;entryX=1;entryY=0.5;entryDx=0;entryDy=0;endArrow=diamondThin;endFill=1;endSize=16;" parent="1" source="d6jduwgGcOAKK98Mc7a5-330" target="d6jduwgGcOAKK98Mc7a5-321" edge="1">
                    <mxGeometry relative="1" as="geometry">
                        <Array as="points">
                            <mxPoint x="547" y="-1059"/>
                            <mxPoint x="547" y="-1126"/>
                        </Array>
                    </mxGeometry>
                </mxCell>
                <mxCell id="d6jduwgGcOAKK98Mc7a5-365" style="edgeStyle=orthogonalEdgeStyle;html=1;endArrow=diamondThin;endFill=1;endSize=16;" parent="1" source="d6jduwgGcOAKK98Mc7a5-321" target="d6jduwgGcOAKK98Mc7a5-344" edge="1">
                    <mxGeometry relative="1" as="geometry"/>
                </mxCell>
                <mxCell id="d6jduwgGcOAKK98Mc7a5-366" style="edgeStyle=orthogonalEdgeStyle;html=1;endArrow=diamondThin;endFill=1;endSize=16;" parent="1" source="d6jduwgGcOAKK98Mc7a5-344" target="d6jduwgGcOAKK98Mc7a5-308" edge="1">
                    <mxGeometry relative="1" as="geometry">
                        <Array as="points">
                            <mxPoint x="202" y="-1033"/>
                            <mxPoint x="202" y="-817"/>
                        </Array>
                    </mxGeometry>
                </mxCell>
                <mxCell id="d6jduwgGcOAKK98Mc7a5-367" style="edgeStyle=orthogonalEdgeStyle;html=1;endArrow=diamondThin;endFill=1;endSize=16;" parent="1" source="d6jduwgGcOAKK98Mc7a5-330" target="d6jduwgGcOAKK98Mc7a5-308" edge="1">
                    <mxGeometry relative="1" as="geometry">
                        <Array as="points">
                            <mxPoint x="545" y="-1033"/>
                            <mxPoint x="545" y="-817"/>
                        </Array>
                    </mxGeometry>
                </mxCell>
                <mxCell id="d6jduwgGcOAKK98Mc7a5-368" style="edgeStyle=orthogonalEdgeStyle;html=1;endArrow=none;endFill=0;" parent="1" source="d6jduwgGcOAKK98Mc7a5-370" target="d6jduwgGcOAKK98Mc7a5-344" edge="1">
                    <mxGeometry relative="1" as="geometry"/>
                </mxCell>
                <mxCell id="d6jduwgGcOAKK98Mc7a5-369" style="edgeStyle=orthogonalEdgeStyle;html=1;endArrow=none;endFill=0;entryX=0;entryY=0.5;entryDx=0;entryDy=0;exitX=1;exitY=0.5;exitDx=0;exitDy=0;" parent="1" source="d6jduwgGcOAKK98Mc7a5-372" target="d6jduwgGcOAKK98Mc7a5-354" edge="1">
                    <mxGeometry relative="1" as="geometry"/>
                </mxCell>
                <mxCell id="d6jduwgGcOAKK98Mc7a5-370" value="CategoriesHasRoom" style="swimlane;fontStyle=1;align=center;verticalAlign=top;childLayout=stackLayout;horizontal=1;startSize=26;horizontalStack=0;resizeParent=1;resizeParentMax=0;resizeLast=0;collapsible=1;marginBottom=0;" parent="1" vertex="1">
                    <mxGeometry x="-22" y="-632" width="160" height="138" as="geometry"/>
                </mxCell>
                <mxCell id="d6jduwgGcOAKK98Mc7a5-371" value="category_id" style="text;strokeColor=none;fillColor=none;align=left;verticalAlign=top;spacingLeft=4;spacingRight=4;overflow=hidden;rotatable=0;points=[[0,0.5],[1,0.5]];portConstraint=eastwest;" parent="d6jduwgGcOAKK98Mc7a5-370" vertex="1">
                    <mxGeometry y="26" width="160" height="26" as="geometry"/>
                </mxCell>
                <mxCell id="d6jduwgGcOAKK98Mc7a5-372" value="room_id" style="text;strokeColor=none;fillColor=none;align=left;verticalAlign=top;spacingLeft=4;spacingRight=4;overflow=hidden;rotatable=0;points=[[0,0.5],[1,0.5]];portConstraint=eastwest;" parent="d6jduwgGcOAKK98Mc7a5-370" vertex="1">
                    <mxGeometry y="52" width="160" height="26" as="geometry"/>
                </mxCell>
                <mxCell id="d6jduwgGcOAKK98Mc7a5-373" value="" style="line;strokeWidth=1;fillColor=none;align=left;verticalAlign=middle;spacingTop=-1;spacingLeft=3;spacingRight=3;rotatable=0;labelPosition=right;points=[];portConstraint=eastwest;strokeColor=inherit;" parent="d6jduwgGcOAKK98Mc7a5-370" vertex="1">
                    <mxGeometry y="78" width="160" height="8" as="geometry"/>
                </mxCell>
                <mxCell id="d6jduwgGcOAKK98Mc7a5-374" value="+ destroy(uuid): response" style="text;strokeColor=none;fillColor=none;align=left;verticalAlign=top;spacingLeft=4;spacingRight=4;overflow=hidden;rotatable=0;points=[[0,0.5],[1,0.5]];portConstraint=eastwest;" parent="d6jduwgGcOAKK98Mc7a5-370" vertex="1">
                    <mxGeometry y="86" width="160" height="26" as="geometry"/>
                </mxCell>
                <mxCell id="d6jduwgGcOAKK98Mc7a5-375" value="+ show(uuid): response" style="text;strokeColor=none;fillColor=none;align=left;verticalAlign=top;spacingLeft=4;spacingRight=4;overflow=hidden;rotatable=0;points=[[0,0.5],[1,0.5]];portConstraint=eastwest;" parent="d6jduwgGcOAKK98Mc7a5-370" vertex="1">
                    <mxGeometry y="112" width="160" height="26" as="geometry"/>
                </mxCell>
                <mxCell id="d6jduwgGcOAKK98Mc7a5-376" style="edgeStyle=orthogonalEdgeStyle;rounded=0;orthogonalLoop=1;jettySize=auto;html=1;endArrow=none;endFill=0;endSize=16;entryX=0;entryY=0.5;entryDx=0;entryDy=0;" parent="1" source="d6jduwgGcOAKK98Mc7a5-279" target="d6jduwgGcOAKK98Mc7a5-337" edge="1">
                    <mxGeometry relative="1" as="geometry"/>
                </mxCell>
                <mxCell id="d6jduwgGcOAKK98Mc7a5-377" value="Billing" style="swimlane;fontStyle=1;align=center;verticalAlign=top;childLayout=stackLayout;horizontal=1;startSize=26;horizontalStack=0;resizeParent=1;resizeParentMax=0;resizeLast=0;collapsible=1;marginBottom=0;" parent="1" vertex="1">
                    <mxGeometry x="1358" y="-1907" width="220" height="294" as="geometry"/>
                </mxCell>
                <mxCell id="d6jduwgGcOAKK98Mc7a5-378" value="+ uuid: uuid" style="text;strokeColor=none;fillColor=none;align=left;verticalAlign=top;spacingLeft=4;spacingRight=4;overflow=hidden;rotatable=0;points=[[0,0.5],[1,0.5]];portConstraint=eastwest;" parent="d6jduwgGcOAKK98Mc7a5-377" vertex="1">
                    <mxGeometry y="26" width="220" height="26" as="geometry"/>
                </mxCell>
                <mxCell id="d6jduwgGcOAKK98Mc7a5-379" value="+ Plan: Plan" style="text;strokeColor=none;fillColor=none;align=left;verticalAlign=top;spacingLeft=4;spacingRight=4;overflow=hidden;rotatable=0;points=[[0,0.5],[1,0.5]];portConstraint=eastwest;" parent="d6jduwgGcOAKK98Mc7a5-377" vertex="1">
                    <mxGeometry y="52" width="220" height="26" as="geometry"/>
                </mxCell>
                <mxCell id="d6jduwgGcOAKK98Mc7a5-442" value="+ Model: Model" style="text;strokeColor=none;fillColor=none;align=left;verticalAlign=top;spacingLeft=4;spacingRight=4;overflow=hidden;rotatable=0;points=[[0,0.5],[1,0.5]];portConstraint=eastwest;" parent="d6jduwgGcOAKK98Mc7a5-377" vertex="1">
                    <mxGeometry y="78" width="220" height="26" as="geometry"/>
                </mxCell>
                <mxCell id="d6jduwgGcOAKK98Mc7a5-454" value="+ Date: Date" style="text;strokeColor=none;fillColor=none;align=left;verticalAlign=top;spacingLeft=4;spacingRight=4;overflow=hidden;rotatable=0;points=[[0,0.5],[1,0.5]];portConstraint=eastwest;" parent="d6jduwgGcOAKK98Mc7a5-377" vertex="1">
                    <mxGeometry y="104" width="220" height="26" as="geometry"/>
                </mxCell>
                <mxCell id="d6jduwgGcOAKK98Mc7a5-380" value="" style="line;strokeWidth=1;fillColor=none;align=left;verticalAlign=middle;spacingTop=-1;spacingLeft=3;spacingRight=3;rotatable=0;labelPosition=right;points=[];portConstraint=eastwest;strokeColor=inherit;" parent="d6jduwgGcOAKK98Mc7a5-377" vertex="1">
                    <mxGeometry y="130" width="220" height="8" as="geometry"/>
                </mxCell>
                <mxCell id="d6jduwgGcOAKK98Mc7a5-381" value="+ store(request: request ): response" style="text;strokeColor=none;fillColor=none;align=left;verticalAlign=top;spacingLeft=4;spacingRight=4;overflow=hidden;rotatable=0;points=[[0,0.5],[1,0.5]];portConstraint=eastwest;" parent="d6jduwgGcOAKK98Mc7a5-377" vertex="1">
                    <mxGeometry y="138" width="220" height="26" as="geometry"/>
                </mxCell>
                <mxCell id="d6jduwgGcOAKK98Mc7a5-382" value="+ storeAddress(Request ): response" style="text;strokeColor=none;fillColor=none;align=left;verticalAlign=top;spacingLeft=4;spacingRight=4;overflow=hidden;rotatable=0;points=[[0,0.5],[1,0.5]];portConstraint=eastwest;" parent="d6jduwgGcOAKK98Mc7a5-377" vertex="1">
                    <mxGeometry y="164" width="220" height="26" as="geometry"/>
                </mxCell>
                <mxCell id="d6jduwgGcOAKK98Mc7a5-383" value="+ storeOrUpdatePhoto(Request ): response" style="text;strokeColor=none;fillColor=none;align=left;verticalAlign=top;spacingLeft=4;spacingRight=4;overflow=hidden;rotatable=0;points=[[0,0.5],[1,0.5]];portConstraint=eastwest;" parent="d6jduwgGcOAKK98Mc7a5-377" vertex="1">
                    <mxGeometry y="190" width="220" height="26" as="geometry"/>
                </mxCell>
                <mxCell id="d6jduwgGcOAKK98Mc7a5-384" value="+ update(request: request ): response" style="text;strokeColor=none;fillColor=none;align=left;verticalAlign=top;spacingLeft=4;spacingRight=4;overflow=hidden;rotatable=0;points=[[0,0.5],[1,0.5]];portConstraint=eastwest;" parent="d6jduwgGcOAKK98Mc7a5-377" vertex="1">
                    <mxGeometry y="216" width="220" height="26" as="geometry"/>
                </mxCell>
                <mxCell id="d6jduwgGcOAKK98Mc7a5-385" value="+ show(uuid : string ): response" style="text;strokeColor=none;fillColor=none;align=left;verticalAlign=top;spacingLeft=4;spacingRight=4;overflow=hidden;rotatable=0;points=[[0,0.5],[1,0.5]];portConstraint=eastwest;" parent="d6jduwgGcOAKK98Mc7a5-377" vertex="1">
                    <mxGeometry y="242" width="220" height="26" as="geometry"/>
                </mxCell>
                <mxCell id="d6jduwgGcOAKK98Mc7a5-386" value="+ destroy(uuid : string ): response" style="text;strokeColor=none;fillColor=none;align=left;verticalAlign=top;spacingLeft=4;spacingRight=4;overflow=hidden;rotatable=0;points=[[0,0.5],[1,0.5]];portConstraint=eastwest;" parent="d6jduwgGcOAKK98Mc7a5-377" vertex="1">
                    <mxGeometry y="268" width="220" height="26" as="geometry"/>
                </mxCell>
                <mxCell id="d6jduwgGcOAKK98Mc7a5-443" style="edgeStyle=orthogonalEdgeStyle;rounded=0;jumpStyle=arc;jumpSize=6;orthogonalLoop=1;jettySize=auto;html=1;endArrow=diamondThin;endFill=1;startSize=6;endSize=16;" parent="1" source="d6jduwgGcOAKK98Mc7a5-387" target="d6jduwgGcOAKK98Mc7a5-377" edge="1">
                    <mxGeometry relative="1" as="geometry"/>
                </mxCell>
                <mxCell id="d6jduwgGcOAKK98Mc7a5-387" value="Plan" style="swimlane;fontStyle=1;align=center;verticalAlign=top;childLayout=stackLayout;horizontal=1;startSize=26;horizontalStack=0;resizeParent=1;resizeParentMax=0;resizeLast=0;collapsible=1;marginBottom=0;" parent="1" vertex="1">
                    <mxGeometry x="1358" y="-1567" width="220" height="268" as="geometry"/>
                </mxCell>
                <mxCell id="d6jduwgGcOAKK98Mc7a5-388" value="+ uuid: uuid" style="text;strokeColor=none;fillColor=none;align=left;verticalAlign=top;spacingLeft=4;spacingRight=4;overflow=hidden;rotatable=0;points=[[0,0.5],[1,0.5]];portConstraint=eastwest;" parent="d6jduwgGcOAKK98Mc7a5-387" vertex="1">
                    <mxGeometry y="26" width="220" height="26" as="geometry"/>
                </mxCell>
                <mxCell id="d6jduwgGcOAKK98Mc7a5-389" value="+ name: string" style="text;strokeColor=none;fillColor=none;align=left;verticalAlign=top;spacingLeft=4;spacingRight=4;overflow=hidden;rotatable=0;points=[[0,0.5],[1,0.5]];portConstraint=eastwest;" parent="d6jduwgGcOAKK98Mc7a5-387" vertex="1">
                    <mxGeometry y="52" width="220" height="26" as="geometry"/>
                </mxCell>
                <mxCell id="d6jduwgGcOAKK98Mc7a5-390" value="+ User: User" style="text;strokeColor=none;fillColor=none;align=left;verticalAlign=top;spacingLeft=4;spacingRight=4;overflow=hidden;rotatable=0;points=[[0,0.5],[1,0.5]];portConstraint=eastwest;" parent="d6jduwgGcOAKK98Mc7a5-387" vertex="1">
                    <mxGeometry y="78" width="220" height="26" as="geometry"/>
                </mxCell>
                <mxCell id="d6jduwgGcOAKK98Mc7a5-391" value="" style="line;strokeWidth=1;fillColor=none;align=left;verticalAlign=middle;spacingTop=-1;spacingLeft=3;spacingRight=3;rotatable=0;labelPosition=right;points=[];portConstraint=eastwest;strokeColor=inherit;" parent="d6jduwgGcOAKK98Mc7a5-387" vertex="1">
                    <mxGeometry y="104" width="220" height="8" as="geometry"/>
                </mxCell>
                <mxCell id="d6jduwgGcOAKK98Mc7a5-392" value="+ store(request: request ): response" style="text;strokeColor=none;fillColor=none;align=left;verticalAlign=top;spacingLeft=4;spacingRight=4;overflow=hidden;rotatable=0;points=[[0,0.5],[1,0.5]];portConstraint=eastwest;" parent="d6jduwgGcOAKK98Mc7a5-387" vertex="1">
                    <mxGeometry y="112" width="220" height="26" as="geometry"/>
                </mxCell>
                <mxCell id="d6jduwgGcOAKK98Mc7a5-393" value="+ storeAddress(Request ): response" style="text;strokeColor=none;fillColor=none;align=left;verticalAlign=top;spacingLeft=4;spacingRight=4;overflow=hidden;rotatable=0;points=[[0,0.5],[1,0.5]];portConstraint=eastwest;" parent="d6jduwgGcOAKK98Mc7a5-387" vertex="1">
                    <mxGeometry y="138" width="220" height="26" as="geometry"/>
                </mxCell>
                <mxCell id="d6jduwgGcOAKK98Mc7a5-394" value="+ storeOrUpdatePhoto(Request ): response" style="text;strokeColor=none;fillColor=none;align=left;verticalAlign=top;spacingLeft=4;spacingRight=4;overflow=hidden;rotatable=0;points=[[0,0.5],[1,0.5]];portConstraint=eastwest;" parent="d6jduwgGcOAKK98Mc7a5-387" vertex="1">
                    <mxGeometry y="164" width="220" height="26" as="geometry"/>
                </mxCell>
                <mxCell id="d6jduwgGcOAKK98Mc7a5-395" value="+ update(request: request ): response" style="text;strokeColor=none;fillColor=none;align=left;verticalAlign=top;spacingLeft=4;spacingRight=4;overflow=hidden;rotatable=0;points=[[0,0.5],[1,0.5]];portConstraint=eastwest;" parent="d6jduwgGcOAKK98Mc7a5-387" vertex="1">
                    <mxGeometry y="190" width="220" height="26" as="geometry"/>
                </mxCell>
                <mxCell id="d6jduwgGcOAKK98Mc7a5-396" value="+ show(uuid : string ): response" style="text;strokeColor=none;fillColor=none;align=left;verticalAlign=top;spacingLeft=4;spacingRight=4;overflow=hidden;rotatable=0;points=[[0,0.5],[1,0.5]];portConstraint=eastwest;" parent="d6jduwgGcOAKK98Mc7a5-387" vertex="1">
                    <mxGeometry y="216" width="220" height="26" as="geometry"/>
                </mxCell>
                <mxCell id="d6jduwgGcOAKK98Mc7a5-397" value="+ destroy(uuid : string ): response" style="text;strokeColor=none;fillColor=none;align=left;verticalAlign=top;spacingLeft=4;spacingRight=4;overflow=hidden;rotatable=0;points=[[0,0.5],[1,0.5]];portConstraint=eastwest;" parent="d6jduwgGcOAKK98Mc7a5-387" vertex="1">
                    <mxGeometry y="242" width="220" height="26" as="geometry"/>
                </mxCell>
                <mxCell id="d6jduwgGcOAKK98Mc7a5-398" value="Historic" style="swimlane;fontStyle=1;align=center;verticalAlign=top;childLayout=stackLayout;horizontal=1;startSize=26;horizontalStack=0;resizeParent=1;resizeParentMax=0;resizeLast=0;collapsible=1;marginBottom=0;" parent="1" vertex="1">
                    <mxGeometry x="1366" y="-1145" width="220" height="346" as="geometry"/>
                </mxCell>
                <mxCell id="d6jduwgGcOAKK98Mc7a5-399" value="+ uuid: uuid" style="text;strokeColor=none;fillColor=none;align=left;verticalAlign=top;spacingLeft=4;spacingRight=4;overflow=hidden;rotatable=0;points=[[0,0.5],[1,0.5]];portConstraint=eastwest;" parent="d6jduwgGcOAKK98Mc7a5-398" vertex="1">
                    <mxGeometry y="26" width="220" height="26" as="geometry"/>
                </mxCell>
                <mxCell id="d6jduwgGcOAKK98Mc7a5-451" value="+ User: User" style="text;strokeColor=none;fillColor=none;align=left;verticalAlign=top;spacingLeft=4;spacingRight=4;overflow=hidden;rotatable=0;points=[[0,0.5],[1,0.5]];portConstraint=eastwest;" parent="d6jduwgGcOAKK98Mc7a5-398" vertex="1">
                    <mxGeometry y="52" width="220" height="26" as="geometry"/>
                </mxCell>
                <mxCell id="d6jduwgGcOAKK98Mc7a5-452" value="+ Billing: Billing" style="text;strokeColor=none;fillColor=none;align=left;verticalAlign=top;spacingLeft=4;spacingRight=4;overflow=hidden;rotatable=0;points=[[0,0.5],[1,0.5]];portConstraint=eastwest;" parent="d6jduwgGcOAKK98Mc7a5-398" vertex="1">
                    <mxGeometry y="78" width="220" height="26" as="geometry"/>
                </mxCell>
                <mxCell id="d6jduwgGcOAKK98Mc7a5-400" value="+ name: string" style="text;strokeColor=none;fillColor=none;align=left;verticalAlign=top;spacingLeft=4;spacingRight=4;overflow=hidden;rotatable=0;points=[[0,0.5],[1,0.5]];portConstraint=eastwest;" parent="d6jduwgGcOAKK98Mc7a5-398" vertex="1">
                    <mxGeometry y="104" width="220" height="26" as="geometry"/>
                </mxCell>
                <mxCell id="d6jduwgGcOAKK98Mc7a5-401" value="+ description: string" style="text;strokeColor=none;fillColor=none;align=left;verticalAlign=top;spacingLeft=4;spacingRight=4;overflow=hidden;rotatable=0;points=[[0,0.5],[1,0.5]];portConstraint=eastwest;" parent="d6jduwgGcOAKK98Mc7a5-398" vertex="1">
                    <mxGeometry y="130" width="220" height="26" as="geometry"/>
                </mxCell>
                <mxCell id="d6jduwgGcOAKK98Mc7a5-402" value="+ value: float" style="text;strokeColor=none;fillColor=none;align=left;verticalAlign=top;spacingLeft=4;spacingRight=4;overflow=hidden;rotatable=0;points=[[0,0.5],[1,0.5]];portConstraint=eastwest;" parent="d6jduwgGcOAKK98Mc7a5-398" vertex="1">
                    <mxGeometry y="156" width="220" height="26" as="geometry"/>
                </mxCell>
                <mxCell id="d6jduwgGcOAKK98Mc7a5-403" value="" style="line;strokeWidth=1;fillColor=none;align=left;verticalAlign=middle;spacingTop=-1;spacingLeft=3;spacingRight=3;rotatable=0;labelPosition=right;points=[];portConstraint=eastwest;strokeColor=inherit;" parent="d6jduwgGcOAKK98Mc7a5-398" vertex="1">
                    <mxGeometry y="182" width="220" height="8" as="geometry"/>
                </mxCell>
                <mxCell id="d6jduwgGcOAKK98Mc7a5-404" value="+ store(request: request ): response" style="text;strokeColor=none;fillColor=none;align=left;verticalAlign=top;spacingLeft=4;spacingRight=4;overflow=hidden;rotatable=0;points=[[0,0.5],[1,0.5]];portConstraint=eastwest;" parent="d6jduwgGcOAKK98Mc7a5-398" vertex="1">
                    <mxGeometry y="190" width="220" height="26" as="geometry"/>
                </mxCell>
                <mxCell id="d6jduwgGcOAKK98Mc7a5-405" value="+ storeAddress(Request ): response" style="text;strokeColor=none;fillColor=none;align=left;verticalAlign=top;spacingLeft=4;spacingRight=4;overflow=hidden;rotatable=0;points=[[0,0.5],[1,0.5]];portConstraint=eastwest;" parent="d6jduwgGcOAKK98Mc7a5-398" vertex="1">
                    <mxGeometry y="216" width="220" height="26" as="geometry"/>
                </mxCell>
                <mxCell id="d6jduwgGcOAKK98Mc7a5-406" value="+ storeOrUpdatePhoto(Request ): response" style="text;strokeColor=none;fillColor=none;align=left;verticalAlign=top;spacingLeft=4;spacingRight=4;overflow=hidden;rotatable=0;points=[[0,0.5],[1,0.5]];portConstraint=eastwest;" parent="d6jduwgGcOAKK98Mc7a5-398" vertex="1">
                    <mxGeometry y="242" width="220" height="26" as="geometry"/>
                </mxCell>
                <mxCell id="d6jduwgGcOAKK98Mc7a5-407" value="+ update(request: request ): response" style="text;strokeColor=none;fillColor=none;align=left;verticalAlign=top;spacingLeft=4;spacingRight=4;overflow=hidden;rotatable=0;points=[[0,0.5],[1,0.5]];portConstraint=eastwest;" parent="d6jduwgGcOAKK98Mc7a5-398" vertex="1">
                    <mxGeometry y="268" width="220" height="26" as="geometry"/>
                </mxCell>
                <mxCell id="d6jduwgGcOAKK98Mc7a5-408" value="+ show(uuid : string ): response" style="text;strokeColor=none;fillColor=none;align=left;verticalAlign=top;spacingLeft=4;spacingRight=4;overflow=hidden;rotatable=0;points=[[0,0.5],[1,0.5]];portConstraint=eastwest;" parent="d6jduwgGcOAKK98Mc7a5-398" vertex="1">
                    <mxGeometry y="294" width="220" height="26" as="geometry"/>
                </mxCell>
                <mxCell id="d6jduwgGcOAKK98Mc7a5-409" value="+ destroy(uuid : string ): response" style="text;strokeColor=none;fillColor=none;align=left;verticalAlign=top;spacingLeft=4;spacingRight=4;overflow=hidden;rotatable=0;points=[[0,0.5],[1,0.5]];portConstraint=eastwest;" parent="d6jduwgGcOAKK98Mc7a5-398" vertex="1">
                    <mxGeometry y="320" width="220" height="26" as="geometry"/>
                </mxCell>
                <mxCell id="d6jduwgGcOAKK98Mc7a5-410" style="edgeStyle=orthogonalEdgeStyle;rounded=0;jumpStyle=arc;orthogonalLoop=1;jettySize=auto;html=1;entryX=1;entryY=0.5;entryDx=0;entryDy=0;endArrow=diamondThin;endFill=1;endSize=16;elbow=vertical;" parent="1" source="d6jduwgGcOAKK98Mc7a5-411" target="d6jduwgGcOAKK98Mc7a5-419" edge="1">
                    <mxGeometry relative="1" as="geometry">
                        <Array as="points"/>
                    </mxGeometry>
                </mxCell>
                <mxCell id="d6jduwgGcOAKK98Mc7a5-411" value="Schedule" style="swimlane;fontStyle=1;align=center;verticalAlign=top;childLayout=stackLayout;horizontal=1;startSize=26;horizontalStack=0;resizeParent=1;resizeParentMax=0;resizeLast=0;collapsible=1;marginBottom=0;" parent="1" vertex="1">
                    <mxGeometry x="906" y="-1500" width="160" height="138" as="geometry"/>
                </mxCell>
                <mxCell id="d6jduwgGcOAKK98Mc7a5-412" value="+ User: User" style="text;strokeColor=none;fillColor=none;align=left;verticalAlign=top;spacingLeft=4;spacingRight=4;overflow=hidden;rotatable=0;points=[[0,0.5],[1,0.5]];portConstraint=eastwest;" parent="d6jduwgGcOAKK98Mc7a5-411" vertex="1">
                    <mxGeometry y="26" width="160" height="26" as="geometry"/>
                </mxCell>
                <mxCell id="d6jduwgGcOAKK98Mc7a5-413" value="+ name: string" style="text;strokeColor=none;fillColor=none;align=left;verticalAlign=top;spacingLeft=4;spacingRight=4;overflow=hidden;rotatable=0;points=[[0,0.5],[1,0.5]];portConstraint=eastwest;" parent="d6jduwgGcOAKK98Mc7a5-411" vertex="1">
                    <mxGeometry y="52" width="160" height="26" as="geometry"/>
                </mxCell>
                <mxCell id="d6jduwgGcOAKK98Mc7a5-414" value="" style="line;strokeWidth=1;fillColor=none;align=left;verticalAlign=middle;spacingTop=-1;spacingLeft=3;spacingRight=3;rotatable=0;labelPosition=right;points=[];portConstraint=eastwest;strokeColor=inherit;" parent="d6jduwgGcOAKK98Mc7a5-411" vertex="1">
                    <mxGeometry y="78" width="160" height="8" as="geometry"/>
                </mxCell>
                <mxCell id="d6jduwgGcOAKK98Mc7a5-415" value="+ destroy(uuid): response" style="text;strokeColor=none;fillColor=none;align=left;verticalAlign=top;spacingLeft=4;spacingRight=4;overflow=hidden;rotatable=0;points=[[0,0.5],[1,0.5]];portConstraint=eastwest;" parent="d6jduwgGcOAKK98Mc7a5-411" vertex="1">
                    <mxGeometry y="86" width="160" height="26" as="geometry"/>
                </mxCell>
                <mxCell id="d6jduwgGcOAKK98Mc7a5-416" value="+ show(uuid): response" style="text;strokeColor=none;fillColor=none;align=left;verticalAlign=top;spacingLeft=4;spacingRight=4;overflow=hidden;rotatable=0;points=[[0,0.5],[1,0.5]];portConstraint=eastwest;" parent="d6jduwgGcOAKK98Mc7a5-411" vertex="1">
                    <mxGeometry y="112" width="160" height="26" as="geometry"/>
                </mxCell>
                <mxCell id="d6jduwgGcOAKK98Mc7a5-417" value="Schedules" style="swimlane;fontStyle=1;align=center;verticalAlign=top;childLayout=stackLayout;horizontal=1;startSize=26;horizontalStack=0;resizeParent=1;resizeParentMax=0;resizeLast=0;collapsible=1;marginBottom=0;" parent="1" vertex="1">
                    <mxGeometry x="681" y="-1496" width="160" height="216" as="geometry"/>
                </mxCell>
                <mxCell id="d6jduwgGcOAKK98Mc7a5-418" value="+ Schedule: Schedule" style="text;strokeColor=none;fillColor=none;align=left;verticalAlign=top;spacingLeft=4;spacingRight=4;overflow=hidden;rotatable=0;points=[[0,0.5],[1,0.5]];portConstraint=eastwest;" parent="d6jduwgGcOAKK98Mc7a5-417" vertex="1">
                    <mxGeometry y="26" width="160" height="26" as="geometry"/>
                </mxCell>
                <mxCell id="d6jduwgGcOAKK98Mc7a5-419" value="+ Room: Room" style="text;strokeColor=none;fillColor=none;align=left;verticalAlign=top;spacingLeft=4;spacingRight=4;overflow=hidden;rotatable=0;points=[[0,0.5],[1,0.5]];portConstraint=eastwest;" parent="d6jduwgGcOAKK98Mc7a5-417" vertex="1">
                    <mxGeometry y="52" width="160" height="26" as="geometry"/>
                </mxCell>
                <mxCell id="d6jduwgGcOAKK98Mc7a5-421" value="+ value: float" style="text;strokeColor=none;fillColor=none;align=left;verticalAlign=top;spacingLeft=4;spacingRight=4;overflow=hidden;rotatable=0;points=[[0,0.5],[1,0.5]];portConstraint=eastwest;" parent="d6jduwgGcOAKK98Mc7a5-417" vertex="1">
                    <mxGeometry y="78" width="160" height="26" as="geometry"/>
                </mxCell>
                <mxCell id="d6jduwgGcOAKK98Mc7a5-422" value="+ time: string&#10;" style="text;strokeColor=none;fillColor=none;align=left;verticalAlign=top;spacingLeft=4;spacingRight=4;overflow=hidden;rotatable=0;points=[[0,0.5],[1,0.5]];portConstraint=eastwest;" parent="d6jduwgGcOAKK98Mc7a5-417" vertex="1">
                    <mxGeometry y="104" width="160" height="26" as="geometry"/>
                </mxCell>
                <mxCell id="d6jduwgGcOAKK98Mc7a5-423" value="+ date: Date&#10;" style="text;strokeColor=none;fillColor=none;align=left;verticalAlign=top;spacingLeft=4;spacingRight=4;overflow=hidden;rotatable=0;points=[[0,0.5],[1,0.5]];portConstraint=eastwest;" parent="d6jduwgGcOAKK98Mc7a5-417" vertex="1">
                    <mxGeometry y="130" width="160" height="26" as="geometry"/>
                </mxCell>
                <mxCell id="d6jduwgGcOAKK98Mc7a5-424" value="" style="line;strokeWidth=1;fillColor=none;align=left;verticalAlign=middle;spacingTop=-1;spacingLeft=3;spacingRight=3;rotatable=0;labelPosition=right;points=[];portConstraint=eastwest;strokeColor=inherit;" parent="d6jduwgGcOAKK98Mc7a5-417" vertex="1">
                    <mxGeometry y="156" width="160" height="8" as="geometry"/>
                </mxCell>
                <mxCell id="d6jduwgGcOAKK98Mc7a5-425" value="+ destroy(uuid): response" style="text;strokeColor=none;fillColor=none;align=left;verticalAlign=top;spacingLeft=4;spacingRight=4;overflow=hidden;rotatable=0;points=[[0,0.5],[1,0.5]];portConstraint=eastwest;" parent="d6jduwgGcOAKK98Mc7a5-417" vertex="1">
                    <mxGeometry y="164" width="160" height="26" as="geometry"/>
                </mxCell>
                <mxCell id="d6jduwgGcOAKK98Mc7a5-426" value="+ show(uuid): response" style="text;strokeColor=none;fillColor=none;align=left;verticalAlign=top;spacingLeft=4;spacingRight=4;overflow=hidden;rotatable=0;points=[[0,0.5],[1,0.5]];portConstraint=eastwest;" parent="d6jduwgGcOAKK98Mc7a5-417" vertex="1">
                    <mxGeometry y="190" width="160" height="26" as="geometry"/>
                </mxCell>
                <mxCell id="d6jduwgGcOAKK98Mc7a5-427" value="Services" style="swimlane;fontStyle=1;align=center;verticalAlign=top;childLayout=stackLayout;horizontal=1;startSize=26;horizontalStack=0;resizeParent=1;resizeParentMax=0;resizeLast=0;collapsible=1;marginBottom=0;" parent="1" vertex="1">
                    <mxGeometry x="1358" y="-2294" width="220" height="320" as="geometry"/>
                </mxCell>
                <mxCell id="d6jduwgGcOAKK98Mc7a5-428" value="+ uuid: uuid" style="text;strokeColor=none;fillColor=none;align=left;verticalAlign=top;spacingLeft=4;spacingRight=4;overflow=hidden;rotatable=0;points=[[0,0.5],[1,0.5]];portConstraint=eastwest;" parent="d6jduwgGcOAKK98Mc7a5-427" vertex="1">
                    <mxGeometry y="26" width="220" height="26" as="geometry"/>
                </mxCell>
                <mxCell id="d6jduwgGcOAKK98Mc7a5-440" value="+ Model: Model" style="text;strokeColor=none;fillColor=none;align=left;verticalAlign=top;spacingLeft=4;spacingRight=4;overflow=hidden;rotatable=0;points=[[0,0.5],[1,0.5]];portConstraint=eastwest;" parent="d6jduwgGcOAKK98Mc7a5-427" vertex="1">
                    <mxGeometry y="52" width="220" height="26" as="geometry"/>
                </mxCell>
                <mxCell id="d6jduwgGcOAKK98Mc7a5-429" value="+ name: string" style="text;strokeColor=none;fillColor=none;align=left;verticalAlign=top;spacingLeft=4;spacingRight=4;overflow=hidden;rotatable=0;points=[[0,0.5],[1,0.5]];portConstraint=eastwest;" parent="d6jduwgGcOAKK98Mc7a5-427" vertex="1">
                    <mxGeometry y="78" width="220" height="26" as="geometry"/>
                </mxCell>
                <mxCell id="d6jduwgGcOAKK98Mc7a5-430" value="+ description: string" style="text;strokeColor=none;fillColor=none;align=left;verticalAlign=top;spacingLeft=4;spacingRight=4;overflow=hidden;rotatable=0;points=[[0,0.5],[1,0.5]];portConstraint=eastwest;" parent="d6jduwgGcOAKK98Mc7a5-427" vertex="1">
                    <mxGeometry y="104" width="220" height="26" as="geometry"/>
                </mxCell>
                <mxCell id="d6jduwgGcOAKK98Mc7a5-431" value="+ value: string" style="text;strokeColor=none;fillColor=none;align=left;verticalAlign=top;spacingLeft=4;spacingRight=4;overflow=hidden;rotatable=0;points=[[0,0.5],[1,0.5]];portConstraint=eastwest;" parent="d6jduwgGcOAKK98Mc7a5-427" vertex="1">
                    <mxGeometry y="130" width="220" height="26" as="geometry"/>
                </mxCell>
                <mxCell id="d6jduwgGcOAKK98Mc7a5-432" value="" style="line;strokeWidth=1;fillColor=none;align=left;verticalAlign=middle;spacingTop=-1;spacingLeft=3;spacingRight=3;rotatable=0;labelPosition=right;points=[];portConstraint=eastwest;strokeColor=inherit;" parent="d6jduwgGcOAKK98Mc7a5-427" vertex="1">
                    <mxGeometry y="156" width="220" height="8" as="geometry"/>
                </mxCell>
                <mxCell id="d6jduwgGcOAKK98Mc7a5-433" value="+ store(request: request ): response" style="text;strokeColor=none;fillColor=none;align=left;verticalAlign=top;spacingLeft=4;spacingRight=4;overflow=hidden;rotatable=0;points=[[0,0.5],[1,0.5]];portConstraint=eastwest;" parent="d6jduwgGcOAKK98Mc7a5-427" vertex="1">
                    <mxGeometry y="164" width="220" height="26" as="geometry"/>
                </mxCell>
                <mxCell id="d6jduwgGcOAKK98Mc7a5-434" value="+ storeAddress(Request ): response" style="text;strokeColor=none;fillColor=none;align=left;verticalAlign=top;spacingLeft=4;spacingRight=4;overflow=hidden;rotatable=0;points=[[0,0.5],[1,0.5]];portConstraint=eastwest;" parent="d6jduwgGcOAKK98Mc7a5-427" vertex="1">
                    <mxGeometry y="190" width="220" height="26" as="geometry"/>
                </mxCell>
                <mxCell id="d6jduwgGcOAKK98Mc7a5-435" value="+ storeOrUpdatePhoto(Request ): response" style="text;strokeColor=none;fillColor=none;align=left;verticalAlign=top;spacingLeft=4;spacingRight=4;overflow=hidden;rotatable=0;points=[[0,0.5],[1,0.5]];portConstraint=eastwest;" parent="d6jduwgGcOAKK98Mc7a5-427" vertex="1">
                    <mxGeometry y="216" width="220" height="26" as="geometry"/>
                </mxCell>
                <mxCell id="d6jduwgGcOAKK98Mc7a5-436" value="+ update(request: request ): response" style="text;strokeColor=none;fillColor=none;align=left;verticalAlign=top;spacingLeft=4;spacingRight=4;overflow=hidden;rotatable=0;points=[[0,0.5],[1,0.5]];portConstraint=eastwest;" parent="d6jduwgGcOAKK98Mc7a5-427" vertex="1">
                    <mxGeometry y="242" width="220" height="26" as="geometry"/>
                </mxCell>
                <mxCell id="d6jduwgGcOAKK98Mc7a5-437" value="+ show(uuid : string ): response" style="text;strokeColor=none;fillColor=none;align=left;verticalAlign=top;spacingLeft=4;spacingRight=4;overflow=hidden;rotatable=0;points=[[0,0.5],[1,0.5]];portConstraint=eastwest;" parent="d6jduwgGcOAKK98Mc7a5-427" vertex="1">
                    <mxGeometry y="268" width="220" height="26" as="geometry"/>
                </mxCell>
                <mxCell id="d6jduwgGcOAKK98Mc7a5-438" value="+ destroy(uuid : string ): response" style="text;strokeColor=none;fillColor=none;align=left;verticalAlign=top;spacingLeft=4;spacingRight=4;overflow=hidden;rotatable=0;points=[[0,0.5],[1,0.5]];portConstraint=eastwest;" parent="d6jduwgGcOAKK98Mc7a5-427" vertex="1">
                    <mxGeometry y="294" width="220" height="26" as="geometry"/>
                </mxCell>
                <mxCell id="d6jduwgGcOAKK98Mc7a5-448" style="edgeStyle=orthogonalEdgeStyle;rounded=0;jumpStyle=arc;jumpSize=6;orthogonalLoop=1;jettySize=auto;html=1;endArrow=diamondThin;endFill=1;startSize=6;endSize=16;" parent="1" source="d6jduwgGcOAKK98Mc7a5-427" target="d6jduwgGcOAKK98Mc7a5-377" edge="1">
                    <mxGeometry relative="1" as="geometry">
                        <Array as="points">
                            <mxPoint x="1476" y="-1894"/>
                            <mxPoint x="1476" y="-1894"/>
                        </Array>
                    </mxGeometry>
                </mxCell>
                <mxCell id="d6jduwgGcOAKK98Mc7a5-453" style="edgeStyle=orthogonalEdgeStyle;rounded=0;jumpStyle=arc;jumpSize=6;orthogonalLoop=1;jettySize=auto;html=1;endArrow=diamondThin;endFill=1;startSize=6;endSize=16;" parent="1" source="d6jduwgGcOAKK98Mc7a5-377" target="d6jduwgGcOAKK98Mc7a5-398" edge="1">
                    <mxGeometry relative="1" as="geometry">
                        <Array as="points">
                            <mxPoint x="1680" y="-1782"/>
                            <mxPoint x="1680" y="-985"/>
                        </Array>
                    </mxGeometry>
                </mxCell>
                <mxCell id="shD4E1sYDdocK4SxDkoO-13" style="edgeStyle=orthogonalEdgeStyle;html=1;endArrow=diamondThin;endFill=1;entryX=0;entryY=0.5;entryDx=0;entryDy=0;jumpStyle=arc;endSize=16;" parent="1" source="2" target="d6jduwgGcOAKK98Mc7a5-320" edge="1">
                    <mxGeometry relative="1" as="geometry">
                        <Array as="points">
                            <mxPoint x="201" y="-1276"/>
                            <mxPoint x="201" y="-1152"/>
                        </Array>
                    </mxGeometry>
                </mxCell>
                <mxCell id="2" value="CoworkingOpeningHours" style="swimlane;fontStyle=1;align=center;verticalAlign=top;childLayout=stackLayout;horizontal=1;startSize=26;horizontalStack=0;resizeParent=1;resizeParentMax=0;resizeLast=0;collapsible=1;marginBottom=0;" parent="1" vertex="1">
                    <mxGeometry x="-262" y="-1358" width="160" height="164" as="geometry"/>
                </mxCell>
                <mxCell id="3" value="+ dayOfWeek" style="text;strokeColor=none;fillColor=none;align=left;verticalAlign=top;spacingLeft=4;spacingRight=4;overflow=hidden;rotatable=0;points=[[0,0.5],[1,0.5]];portConstraint=eastwest;" parent="2" vertex="1">
                    <mxGeometry y="26" width="160" height="26" as="geometry"/>
                </mxCell>
                <mxCell id="4" value="+ start" style="text;strokeColor=none;fillColor=none;align=left;verticalAlign=top;spacingLeft=4;spacingRight=4;overflow=hidden;rotatable=0;points=[[0,0.5],[1,0.5]];portConstraint=eastwest;" parent="2" vertex="1">
                    <mxGeometry y="52" width="160" height="26" as="geometry"/>
                </mxCell>
                <mxCell id="5" value="+ end" style="text;strokeColor=none;fillColor=none;align=left;verticalAlign=top;spacingLeft=4;spacingRight=4;overflow=hidden;rotatable=0;points=[[0,0.5],[1,0.5]];portConstraint=eastwest;" parent="2" vertex="1">
                    <mxGeometry y="78" width="160" height="26" as="geometry"/>
                </mxCell>
                <mxCell id="7" value="" style="line;strokeWidth=1;fillColor=none;align=left;verticalAlign=middle;spacingTop=-1;spacingLeft=3;spacingRight=3;rotatable=0;labelPosition=right;points=[];portConstraint=eastwest;strokeColor=inherit;" parent="2" vertex="1">
                    <mxGeometry y="104" width="160" height="8" as="geometry"/>
                </mxCell>
                <mxCell id="8" value="+ destroy(uuid): response" style="text;strokeColor=none;fillColor=none;align=left;verticalAlign=top;spacingLeft=4;spacingRight=4;overflow=hidden;rotatable=0;points=[[0,0.5],[1,0.5]];portConstraint=eastwest;" parent="2" vertex="1">
                    <mxGeometry y="112" width="160" height="26" as="geometry"/>
                </mxCell>
                <mxCell id="9" value="+ show(uuid): response" style="text;strokeColor=none;fillColor=none;align=left;verticalAlign=top;spacingLeft=4;spacingRight=4;overflow=hidden;rotatable=0;points=[[0,0.5],[1,0.5]];portConstraint=eastwest;" parent="2" vertex="1">
                    <mxGeometry y="138" width="160" height="26" as="geometry"/>
                </mxCell>
                <mxCell id="10" value="Appointment" style="swimlane;fontStyle=1;align=center;verticalAlign=top;childLayout=stackLayout;horizontal=1;startSize=26;horizontalStack=0;resizeParent=1;resizeParentMax=0;resizeLast=0;collapsible=1;marginBottom=0;" vertex="1" parent="1">
                    <mxGeometry x="915" y="-1861" width="160" height="268" as="geometry"/>
                </mxCell>
                <mxCell id="11" value="+ customer_id: User" style="text;strokeColor=none;fillColor=none;align=left;verticalAlign=top;spacingLeft=4;spacingRight=4;overflow=hidden;rotatable=0;points=[[0,0.5],[1,0.5]];portConstraint=eastwest;" vertex="1" parent="10">
                    <mxGeometry y="26" width="160" height="26" as="geometry"/>
                </mxCell>
                <mxCell id="12" value="+ schedule_id: Schedule" style="text;strokeColor=none;fillColor=none;align=left;verticalAlign=top;spacingLeft=4;spacingRight=4;overflow=hidden;rotatable=0;points=[[0,0.5],[1,0.5]];portConstraint=eastwest;" vertex="1" parent="10">
                    <mxGeometry y="52" width="160" height="26" as="geometry"/>
                </mxCell>
                <mxCell id="16" value="+ room_id: Room" style="text;strokeColor=none;fillColor=none;align=left;verticalAlign=top;spacingLeft=4;spacingRight=4;overflow=hidden;rotatable=0;points=[[0,0.5],[1,0.5]];portConstraint=eastwest;" vertex="1" parent="10">
                    <mxGeometry y="78" width="160" height="26" as="geometry"/>
                </mxCell>
                <mxCell id="17" value="+ time: Time" style="text;strokeColor=none;fillColor=none;align=left;verticalAlign=top;spacingLeft=4;spacingRight=4;overflow=hidden;rotatable=0;points=[[0,0.5],[1,0.5]];portConstraint=eastwest;" vertex="1" parent="10">
                    <mxGeometry y="104" width="160" height="26" as="geometry"/>
                </mxCell>
                <mxCell id="19" value="+ name: string" style="text;strokeColor=none;fillColor=none;align=left;verticalAlign=top;spacingLeft=4;spacingRight=4;overflow=hidden;rotatable=0;points=[[0,0.5],[1,0.5]];portConstraint=eastwest;" vertex="1" parent="10">
                    <mxGeometry y="130" width="160" height="26" as="geometry"/>
                </mxCell>
                <mxCell id="20" value="+ name: string" style="text;strokeColor=none;fillColor=none;align=left;verticalAlign=top;spacingLeft=4;spacingRight=4;overflow=hidden;rotatable=0;points=[[0,0.5],[1,0.5]];portConstraint=eastwest;" vertex="1" parent="10">
                    <mxGeometry y="156" width="160" height="26" as="geometry"/>
                </mxCell>
                <mxCell id="18" value="+ name: string" style="text;strokeColor=none;fillColor=none;align=left;verticalAlign=top;spacingLeft=4;spacingRight=4;overflow=hidden;rotatable=0;points=[[0,0.5],[1,0.5]];portConstraint=eastwest;" vertex="1" parent="10">
                    <mxGeometry y="182" width="160" height="26" as="geometry"/>
                </mxCell>
                <mxCell id="13" value="" style="line;strokeWidth=1;fillColor=none;align=left;verticalAlign=middle;spacingTop=-1;spacingLeft=3;spacingRight=3;rotatable=0;labelPosition=right;points=[];portConstraint=eastwest;strokeColor=inherit;" vertex="1" parent="10">
                    <mxGeometry y="208" width="160" height="8" as="geometry"/>
                </mxCell>
                <mxCell id="14" value="+ destroy(uuid): response" style="text;strokeColor=none;fillColor=none;align=left;verticalAlign=top;spacingLeft=4;spacingRight=4;overflow=hidden;rotatable=0;points=[[0,0.5],[1,0.5]];portConstraint=eastwest;" vertex="1" parent="10">
                    <mxGeometry y="216" width="160" height="26" as="geometry"/>
                </mxCell>
                <mxCell id="15" value="+ show(uuid): response" style="text;strokeColor=none;fillColor=none;align=left;verticalAlign=top;spacingLeft=4;spacingRight=4;overflow=hidden;rotatable=0;points=[[0,0.5],[1,0.5]];portConstraint=eastwest;" vertex="1" parent="10">
                    <mxGeometry y="242" width="160" height="26" as="geometry"/>
                </mxCell>
            </root>
        </mxGraphModel>
    </diagram>
    <diagram id="XgQGmSTohZd1r-5Gduth" name="Diagrama de caso de uso">
        <mxGraphModel dx="1374" dy="860" grid="1" gridSize="10" guides="1" tooltips="1" connect="1" arrows="1" fold="1" page="1" pageScale="1" pageWidth="827" pageHeight="1169" math="0" shadow="0">
            <root>
                <mxCell id="0"/>
                <mxCell id="1" parent="0"/>
                <mxCell id="ns-CPjQzRsfdzIXGq0YC-6" style="edgeStyle=orthogonalEdgeStyle;rounded=0;orthogonalLoop=1;jettySize=auto;html=1;endArrow=none;endFill=0;endSize=16;curved=1;" parent="1" source="ns-CPjQzRsfdzIXGq0YC-1" target="ns-CPjQzRsfdzIXGq0YC-5" edge="1">
                    <mxGeometry relative="1" as="geometry"/>
                </mxCell>
                <mxCell id="ns-CPjQzRsfdzIXGq0YC-18" style="edgeStyle=orthogonalEdgeStyle;rounded=0;orthogonalLoop=1;jettySize=auto;html=1;entryX=0;entryY=0.5;entryDx=0;entryDy=0;endArrow=none;endFill=0;endSize=16;elbow=vertical;curved=1;" parent="1" source="ns-CPjQzRsfdzIXGq0YC-1" target="ns-CPjQzRsfdzIXGq0YC-15" edge="1">
                    <mxGeometry relative="1" as="geometry"/>
                </mxCell>
                <mxCell id="ns-CPjQzRsfdzIXGq0YC-19" style="edgeStyle=orthogonalEdgeStyle;rounded=0;orthogonalLoop=1;jettySize=auto;html=1;entryX=0;entryY=0.5;entryDx=0;entryDy=0;endArrow=none;endFill=0;endSize=16;elbow=vertical;curved=1;" parent="1" source="ns-CPjQzRsfdzIXGq0YC-1" target="ns-CPjQzRsfdzIXGq0YC-16" edge="1">
                    <mxGeometry relative="1" as="geometry"/>
                </mxCell>
                <mxCell id="ns-CPjQzRsfdzIXGq0YC-1" value="Specialista" style="shape=umlActor;verticalLabelPosition=bottom;verticalAlign=top;html=1;outlineConnect=0;" parent="1" vertex="1">
                    <mxGeometry x="80" y="365" width="30" height="60" as="geometry"/>
                </mxCell>
                <mxCell id="ns-CPjQzRsfdzIXGq0YC-23" style="edgeStyle=orthogonalEdgeStyle;rounded=0;orthogonalLoop=1;jettySize=auto;html=1;entryX=0;entryY=0.5;entryDx=0;entryDy=0;endArrow=none;endFill=0;endSize=16;elbow=vertical;curved=1;" parent="1" source="ns-CPjQzRsfdzIXGq0YC-2" target="ns-CPjQzRsfdzIXGq0YC-21" edge="1">
                    <mxGeometry relative="1" as="geometry"/>
                </mxCell>
                <mxCell id="ns-CPjQzRsfdzIXGq0YC-24" style="edgeStyle=orthogonalEdgeStyle;rounded=0;orthogonalLoop=1;jettySize=auto;html=1;entryX=0;entryY=0.5;entryDx=0;entryDy=0;endArrow=none;endFill=0;endSize=16;elbow=vertical;curved=1;" parent="1" source="ns-CPjQzRsfdzIXGq0YC-2" target="ns-CPjQzRsfdzIXGq0YC-22" edge="1">
                    <mxGeometry relative="1" as="geometry"/>
                </mxCell>
                <mxCell id="ns-CPjQzRsfdzIXGq0YC-32" style="edgeStyle=orthogonalEdgeStyle;rounded=0;orthogonalLoop=1;jettySize=auto;html=1;entryX=0;entryY=0.5;entryDx=0;entryDy=0;endArrow=none;endFill=0;endSize=16;elbow=vertical;curved=1;" parent="1" source="ns-CPjQzRsfdzIXGq0YC-2" target="ns-CPjQzRsfdzIXGq0YC-29" edge="1">
                    <mxGeometry relative="1" as="geometry"/>
                </mxCell>
                <mxCell id="ns-CPjQzRsfdzIXGq0YC-37" style="edgeStyle=orthogonalEdgeStyle;curved=1;rounded=0;orthogonalLoop=1;jettySize=auto;html=1;entryX=0;entryY=0.5;entryDx=0;entryDy=0;endArrow=none;endFill=0;endSize=16;elbow=vertical;" parent="1" source="ns-CPjQzRsfdzIXGq0YC-2" target="ns-CPjQzRsfdzIXGq0YC-36" edge="1">
                    <mxGeometry relative="1" as="geometry"/>
                </mxCell>
                <mxCell id="lzqBURMGQQ8qlVHbpmxq-2" style="edgeStyle=orthogonalEdgeStyle;html=1;entryX=0;entryY=0.5;entryDx=0;entryDy=0;curved=1;endArrow=none;endFill=0;" parent="1" source="ns-CPjQzRsfdzIXGq0YC-2" target="lzqBURMGQQ8qlVHbpmxq-1" edge="1">
                    <mxGeometry relative="1" as="geometry"/>
                </mxCell>
                <mxCell id="ns-CPjQzRsfdzIXGq0YC-2" value="adm-coworking" style="shape=umlActor;verticalLabelPosition=bottom;verticalAlign=top;html=1;outlineConnect=0;" parent="1" vertex="1">
                    <mxGeometry x="80" y="835" width="30" height="60" as="geometry"/>
                </mxCell>
                <mxCell id="ns-CPjQzRsfdzIXGq0YC-28" style="edgeStyle=orthogonalEdgeStyle;rounded=0;orthogonalLoop=1;jettySize=auto;html=1;entryX=0;entryY=0.5;entryDx=0;entryDy=0;endArrow=none;endFill=0;endSize=16;elbow=vertical;curved=1;" parent="1" source="ns-CPjQzRsfdzIXGq0YC-3" target="ns-CPjQzRsfdzIXGq0YC-25" edge="1">
                    <mxGeometry relative="1" as="geometry"/>
                </mxCell>
                <mxCell id="ns-CPjQzRsfdzIXGq0YC-31" style="edgeStyle=orthogonalEdgeStyle;rounded=0;orthogonalLoop=1;jettySize=auto;html=1;entryX=0;entryY=0.5;entryDx=0;entryDy=0;endArrow=none;endFill=0;endSize=16;elbow=vertical;curved=1;" parent="1" source="ns-CPjQzRsfdzIXGq0YC-3" target="ns-CPjQzRsfdzIXGq0YC-30" edge="1">
                    <mxGeometry relative="1" as="geometry"/>
                </mxCell>
                <mxCell id="ns-CPjQzRsfdzIXGq0YC-33" style="edgeStyle=orthogonalEdgeStyle;rounded=0;orthogonalLoop=1;jettySize=auto;html=1;entryX=0;entryY=0.5;entryDx=0;entryDy=0;endArrow=none;endFill=0;endSize=16;elbow=vertical;curved=1;" parent="1" source="ns-CPjQzRsfdzIXGq0YC-3" target="ns-CPjQzRsfdzIXGq0YC-9" edge="1">
                    <mxGeometry relative="1" as="geometry"/>
                </mxCell>
                <mxCell id="ns-CPjQzRsfdzIXGq0YC-3" value="adm-fusion" style="shape=umlActor;verticalLabelPosition=bottom;verticalAlign=top;html=1;outlineConnect=0;" parent="1" vertex="1">
                    <mxGeometry x="80" y="140" width="30" height="60" as="geometry"/>
                </mxCell>
                <mxCell id="ns-CPjQzRsfdzIXGq0YC-8" style="edgeStyle=orthogonalEdgeStyle;rounded=0;orthogonalLoop=1;jettySize=auto;html=1;endArrow=none;endFill=0;endSize=16;" parent="1" source="ns-CPjQzRsfdzIXGq0YC-5" target="ns-CPjQzRsfdzIXGq0YC-7" edge="1">
                    <mxGeometry relative="1" as="geometry"/>
                </mxCell>
                <mxCell id="ns-CPjQzRsfdzIXGq0YC-5" value="Cadastrar Speacialista" style="ellipse;whiteSpace=wrap;html=1;" parent="1" vertex="1">
                    <mxGeometry x="280" y="360" width="140" height="70" as="geometry"/>
                </mxCell>
                <mxCell id="ns-CPjQzRsfdzIXGq0YC-7" value="Eviar cadastro para a lista de aprova��o" style="ellipse;whiteSpace=wrap;html=1;" parent="1" vertex="1">
                    <mxGeometry x="490" y="360" width="140" height="70" as="geometry"/>
                </mxCell>
                <mxCell id="ns-CPjQzRsfdzIXGq0YC-35" style="edgeStyle=orthogonalEdgeStyle;rounded=0;orthogonalLoop=1;jettySize=auto;html=1;entryX=0.5;entryY=1;entryDx=0;entryDy=0;endArrow=none;endFill=0;endSize=16;elbow=vertical;curved=1;" parent="1" source="ns-CPjQzRsfdzIXGq0YC-9" target="ns-CPjQzRsfdzIXGq0YC-11" edge="1">
                    <mxGeometry relative="1" as="geometry"/>
                </mxCell>
                <mxCell id="ns-CPjQzRsfdzIXGq0YC-9" value="Aprovar cadastro de especialista" style="ellipse;whiteSpace=wrap;html=1;" parent="1" vertex="1">
                    <mxGeometry x="270" y="240" width="140" height="70" as="geometry"/>
                </mxCell>
                <mxCell id="ns-CPjQzRsfdzIXGq0YC-11" value="Enviar email de aprova��o com link de registrar senha para usu�rio" style="ellipse;whiteSpace=wrap;html=1;" parent="1" vertex="1">
                    <mxGeometry x="480" y="135" width="140" height="70" as="geometry"/>
                </mxCell>
                <mxCell id="ns-CPjQzRsfdzIXGq0YC-15" value="Pesquisar Salas" style="ellipse;whiteSpace=wrap;html=1;" parent="1" vertex="1">
                    <mxGeometry x="310" y="455" width="140" height="70" as="geometry"/>
                </mxCell>
                <mxCell id="ns-CPjQzRsfdzIXGq0YC-16" value="Agendar Sala" style="ellipse;whiteSpace=wrap;html=1;" parent="1" vertex="1">
                    <mxGeometry x="246" y="550" width="140" height="70" as="geometry"/>
                </mxCell>
                <mxCell id="ns-CPjQzRsfdzIXGq0YC-21" value="Cadastrar Coworking" style="ellipse;whiteSpace=wrap;html=1;" parent="1" vertex="1">
                    <mxGeometry x="280" y="755" width="140" height="70" as="geometry"/>
                </mxCell>
                <mxCell id="ns-CPjQzRsfdzIXGq0YC-22" value="Cadastrar Sala" style="ellipse;whiteSpace=wrap;html=1;" parent="1" vertex="1">
                    <mxGeometry x="374" y="830" width="140" height="70" as="geometry"/>
                </mxCell>
                <mxCell id="ns-CPjQzRsfdzIXGq0YC-34" style="edgeStyle=orthogonalEdgeStyle;rounded=0;orthogonalLoop=1;jettySize=auto;html=1;entryX=0;entryY=0.5;entryDx=0;entryDy=0;endArrow=none;endFill=0;endSize=16;elbow=vertical;curved=1;" parent="1" source="ns-CPjQzRsfdzIXGq0YC-25" target="ns-CPjQzRsfdzIXGq0YC-11" edge="1">
                    <mxGeometry relative="1" as="geometry"/>
                </mxCell>
                <mxCell id="ns-CPjQzRsfdzIXGq0YC-25" value="Registrar admin-coworking" style="ellipse;whiteSpace=wrap;html=1;" parent="1" vertex="1">
                    <mxGeometry x="270" y="135" width="140" height="70" as="geometry"/>
                </mxCell>
                <mxCell id="ns-CPjQzRsfdzIXGq0YC-29" value="Relacionar sala com a categoria" style="ellipse;whiteSpace=wrap;html=1;" parent="1" vertex="1">
                    <mxGeometry x="280" y="900" width="140" height="70" as="geometry"/>
                </mxCell>
                <mxCell id="ns-CPjQzRsfdzIXGq0YC-30" value="Cadastrar categoria de sala" style="ellipse;whiteSpace=wrap;html=1;" parent="1" vertex="1">
                    <mxGeometry x="270" y="20" width="140" height="70" as="geometry"/>
                </mxCell>
                <mxCell id="ns-CPjQzRsfdzIXGq0YC-36" value="Escolher plano" style="ellipse;whiteSpace=wrap;html=1;" parent="1" vertex="1">
                    <mxGeometry x="210" y="980" width="140" height="70" as="geometry"/>
                </mxCell>
                <mxCell id="lzqBURMGQQ8qlVHbpmxq-1" value="Selecionar plano" style="ellipse;whiteSpace=wrap;html=1;" parent="1" vertex="1">
                    <mxGeometry x="210" y="670" width="140" height="70" as="geometry"/>
                </mxCell>
            </root>
        </mxGraphModel>
    </diagram>
</mxfile>